<svg xmlns="http://www.w3.org/2000/svg" viewBox="0 0 1920 1080">
  <defs>
    <linearGradient id="panel" x1="0" y1="0" x2="0" y2="1">
      <stop offset="0%" stop-color="#0C1018" stop-opacity="0.82"/>
      <stop offset="100%" stop-color="#07090D" stop-opacity="0.55"/>
    </linearGradient>
  </defs>
  <rect width="1920" height="1080" fill="#07090D"/>
  <text x="960" y="540" text-anchor="middle" fill="#1A2230" font-size="22" font-family="Arial">ROAD  ·  KEEP CENTER CLEAR</text>
  <!-- top left pos -->
  <rect x="40" y="36" width="280" height="86" rx="14" fill="url(#panel)" stroke="#1E2A3C"/>
  <text x="58" y="78" fill="#00F0FF" font-size="36" font-family="Arial" font-weight="700">5/8</text>
  <text x="160" y="74" fill="#9AA3B5" font-size="14" font-family="Arial">POSITION</text>
  <rect x="40" y="136" width="280" height="220" rx="14" fill="url(#panel)" stroke="#1E2A3C"/>
  <text x="58" y="168" fill="#6B7384" font-size="13" font-family="Arial">1  VORTEX</text>
  <text x="58" y="196" fill="#6B7384" font-size="13" font-family="Arial">2  SHADOW</text>
  <text x="58" y="224" fill="#F2F5FF" font-size="13" font-family="Arial">5  YOU</text>
  <rect x="50" y="208" width="250" height="22" rx="6" fill="#00F0FF" opacity="0.18"/>
  <!-- top center -->
  <rect x="760" y="28" width="400" height="70" rx="16" fill="url(#panel)" stroke="#1E2A3C"/>
  <text x="820" y="72" fill="#F2F5FF" font-size="22" font-family="Arial">LAP 1/3</text>
  <text x="1020" y="72" fill="#00F0FF" font-size="22" font-family="Arial">00:32.76</text>
  <!-- minimap -->
  <circle cx="1788" cy="130" r="86" fill="#0C1018" stroke="#00F0FF" stroke-width="2" opacity="0.9"/>
  <path d="M1748 160 C1760 100, 1810 90, 1828 150" fill="none" stroke="#2EFF8A" stroke-width="4"/>
  <circle cx="1780" cy="148" r="5" fill="#00F0FF"/>
  <!-- speed -->
  <circle cx="1680" cy="900" r="118" fill="#0C1018" stroke="#00F0FF" stroke-width="3"/>
  <text x="1680" y="890" text-anchor="middle" fill="#F2F5FF" font-size="56" font-family="Arial" font-weight="700">218</text>
  <text x="1680" y="928" text-anchor="middle" fill="#9AA3B5" font-size="16" font-family="Arial">KM/H</text>
  <text x="1680" y="958" text-anchor="middle" fill="#00F0FF" font-size="18" font-family="Arial">GEAR 5</text>
  <!-- nitro -->
  <circle cx="1460" cy="930" r="54" fill="#111722" stroke="#6A5CFF" stroke-width="3"/>
  <text x="1460" y="938" text-anchor="middle" fill="#F2F5FF" font-size="14" font-family="Arial">NITRO</text>
  <!-- steer -->
  <circle cx="120" cy="930" r="48" fill="#111722" stroke="#2A3348" stroke-width="2"/>
  <text x="120" y="940" text-anchor="middle" fill="#F2F5FF" font-size="28" font-family="Arial">‹</text>
  <circle cx="230" cy="930" r="48" fill="#111722" stroke="#2A3348" stroke-width="2"/>
  <text x="230" y="940" text-anchor="middle" fill="#F2F5FF" font-size="28" font-family="Arial">›</text>
  <!-- drift popup -->
  <text x="960" y="200" text-anchor="middle" fill="#00F0FF" font-size="22" font-family="Arial">GOOD DRIFT  12M</text>
  <text x="960" y="232" text-anchor="middle" fill="#FF2BD6" font-size="16" font-family="Arial">COMBO  x3</text>
</svg>
