# aurora_r_lod1 - NEON RUSH RACING original asset (procedural, no third-party IP)
v -0.86860 0.24000 2.25000
v -0.84254 0.44000 2.25000
v -0.55550 0.64000 2.25000
v 0.55550 0.64000 2.25000
v 0.84254 0.44000 2.25000
v 0.86860 0.24000 2.25000
v -1.01000 0.24000 1.01250
v -0.97970 0.57000 1.01250
v -0.70700 0.90000 1.01250
v 0.70700 0.90000 1.01250
v 0.97970 0.57000 1.01250
v 1.01000 0.24000 1.01250
v -0.97970 0.24000 -0.76500
v -0.95031 0.75000 -0.76500
v -0.58580 1.26000 -0.76500
v 0.58580 1.26000 -0.76500
v 0.95031 0.75000 -0.76500
v 0.97970 0.24000 -0.76500
v -0.97970 0.24000 1.21500
v -0.95031 0.75000 1.21500
v -0.58580 1.26000 1.21500
v 0.58580 1.26000 1.21500
v 0.95031 0.75000 1.21500
v 0.97970 0.24000 1.21500
v -1.01000 0.24000 -1.23750
v -0.97970 0.57000 -1.23750
v -0.70700 0.90000 -1.23750
v 0.70700 0.90000 -1.23750
v 0.97970 0.57000 -1.23750
v 1.01000 0.24000 -1.23750
v -0.90900 0.24000 -2.25000
v -0.88173 0.54300 -2.25000
v -0.60600 0.84600 -2.25000
v 0.60600 0.84600 -2.25000
v 0.88173 0.54300 -2.25000
v 0.90900 0.24000 -2.25000
v 0.00000 0.44000 2.25000
v 0.00000 0.54300 -2.25000
v -0.82820 1.31500 -2.24000
v 0.82820 1.31500 -2.24000
v 0.82820 1.36500 -2.24000
v -0.82820 1.36500 -2.24000
v -0.82820 1.31500 -1.96000
v 0.82820 1.31500 -1.96000
v 0.82820 1.36500 -1.96000
v -0.82820 1.36500 -1.96000
v -0.79320 0.90000 -2.16000
v -0.74320 0.90000 -2.16000
v -0.74320 1.34000 -2.16000
v -0.79320 1.34000 -2.16000
v -0.79320 0.90000 -2.04000
v -0.74320 0.90000 -2.04000
v -0.74320 1.34000 -2.04000
v -0.79320 1.34000 -2.04000
v 0.74320 0.90000 -2.16000
v 0.79320 0.90000 -2.16000
v 0.79320 1.34000 -2.16000
v 0.74320 1.34000 -2.16000
v 0.74320 0.90000 -2.04000
v 0.79320 0.90000 -2.04000
v 0.79320 1.34000 -2.04000
v 0.74320 1.34000 -2.04000
v -0.95950 0.21500 -2.07000
v 0.95950 0.21500 -2.07000
v 0.95950 0.22500 -2.07000
v -0.95950 0.22500 -2.07000
v -0.95950 0.21500 2.07000
v 0.95950 0.21500 2.07000
v 0.95950 0.22500 2.07000
v -0.95950 0.22500 2.07000
v -0.99000 0.35000 1.88000
v -0.99000 0.59749 1.77749
v -0.99000 0.70000 1.53000
v -0.99000 0.59749 1.28251
v -0.99000 0.35000 1.18000
v -0.99000 0.10251 1.28251
v -0.99000 0.00000 1.53000
v -0.99000 0.10251 1.77749
v -0.99000 0.35000 1.53000
v -0.73000 0.35000 1.88000
v -0.73000 0.59749 1.77749
v -0.73000 0.70000 1.53000
v -0.73000 0.59749 1.28251
v -0.73000 0.35000 1.18000
v -0.73000 0.10251 1.28251
v -0.73000 0.00000 1.53000
v -0.73000 0.10251 1.77749
v -0.73000 0.35000 1.53000
v -0.99000 0.35000 1.88000
v -0.99000 0.35000 1.88000
v -0.99000 0.59749 1.77749
v -0.73000 0.35000 1.88000
v -0.73000 0.59749 1.77749
v -0.99000 0.59749 1.77749
v -0.99000 0.59749 1.77749
v -0.99000 0.70000 1.53000
v -0.73000 0.59749 1.77749
v -0.73000 0.70000 1.53000
v -0.99000 0.70000 1.53000
v -0.99000 0.70000 1.53000
v -0.99000 0.59749 1.28251
v -0.73000 0.70000 1.53000
v -0.73000 0.59749 1.28251
v -0.99000 0.59749 1.28251
v -0.99000 0.59749 1.28251
v -0.99000 0.35000 1.18000
v -0.73000 0.59749 1.28251
v -0.73000 0.35000 1.18000
v -0.99000 0.35000 1.18000
v -0.99000 0.35000 1.18000
v -0.99000 0.10251 1.28251
v -0.73000 0.35000 1.18000
v -0.73000 0.10251 1.28251
v -0.99000 0.10251 1.28251
v -0.99000 0.10251 1.28251
v -0.99000 0.00000 1.53000
v -0.73000 0.10251 1.28251
v -0.73000 0.00000 1.53000
v -0.99000 0.00000 1.53000
v -0.99000 0.00000 1.53000
v -0.99000 0.10251 1.77749
v -0.73000 0.00000 1.53000
v -0.73000 0.10251 1.77749
v -0.99000 0.10251 1.77749
v -0.99000 0.10251 1.77749
v -0.99000 0.35000 1.88000
v -0.73000 0.10251 1.77749
v -0.73000 0.35000 1.88000
v 0.73000 0.35000 1.88000
v 0.73000 0.59749 1.77749
v 0.73000 0.70000 1.53000
v 0.73000 0.59749 1.28251
v 0.73000 0.35000 1.18000
v 0.73000 0.10251 1.28251
v 0.73000 0.00000 1.53000
v 0.73000 0.10251 1.77749
v 0.73000 0.35000 1.53000
v 0.99000 0.35000 1.88000
v 0.99000 0.59749 1.77749
v 0.99000 0.70000 1.53000
v 0.99000 0.59749 1.28251
v 0.99000 0.35000 1.18000
v 0.99000 0.10251 1.28251
v 0.99000 0.00000 1.53000
v 0.99000 0.10251 1.77749
v 0.99000 0.35000 1.53000
v 0.73000 0.35000 1.88000
v 0.73000 0.35000 1.88000
v 0.73000 0.59749 1.77749
v 0.99000 0.35000 1.88000
v 0.99000 0.59749 1.77749
v 0.73000 0.59749 1.77749
v 0.73000 0.59749 1.77749
v 0.73000 0.70000 1.53000
v 0.99000 0.59749 1.77749
v 0.99000 0.70000 1.53000
v 0.73000 0.70000 1.53000
v 0.73000 0.70000 1.53000
v 0.73000 0.59749 1.28251
v 0.99000 0.70000 1.53000
v 0.99000 0.59749 1.28251
v 0.73000 0.59749 1.28251
v 0.73000 0.59749 1.28251
v 0.73000 0.35000 1.18000
v 0.99000 0.59749 1.28251
v 0.99000 0.35000 1.18000
v 0.73000 0.35000 1.18000
v 0.73000 0.35000 1.18000
v 0.73000 0.10251 1.28251
v 0.99000 0.35000 1.18000
v 0.99000 0.10251 1.28251
v 0.73000 0.10251 1.28251
v 0.73000 0.10251 1.28251
v 0.73000 0.00000 1.53000
v 0.99000 0.10251 1.28251
v 0.99000 0.00000 1.53000
v 0.73000 0.00000 1.53000
v 0.73000 0.00000 1.53000
v 0.73000 0.10251 1.77749
v 0.99000 0.00000 1.53000
v 0.99000 0.10251 1.77749
v 0.73000 0.10251 1.77749
v 0.73000 0.10251 1.77749
v 0.73000 0.35000 1.88000
v 0.99000 0.10251 1.77749
v 0.99000 0.35000 1.88000
v -0.99000 0.35000 -1.09000
v -0.99000 0.59749 -1.19251
v -0.99000 0.70000 -1.44000
v -0.99000 0.59749 -1.68749
v -0.99000 0.35000 -1.79000
v -0.99000 0.10251 -1.68749
v -0.99000 0.00000 -1.44000
v -0.99000 0.10251 -1.19251
v -0.99000 0.35000 -1.44000
v -0.73000 0.35000 -1.09000
v -0.73000 0.59749 -1.19251
v -0.73000 0.70000 -1.44000
v -0.73000 0.59749 -1.68749
v -0.73000 0.35000 -1.79000
v -0.73000 0.10251 -1.68749
v -0.73000 0.00000 -1.44000
v -0.73000 0.10251 -1.19251
v -0.73000 0.35000 -1.44000
v -0.99000 0.35000 -1.09000
v -0.99000 0.35000 -1.09000
v -0.99000 0.59749 -1.19251
v -0.73000 0.35000 -1.09000
v -0.73000 0.59749 -1.19251
v -0.99000 0.59749 -1.19251
v -0.99000 0.59749 -1.19251
v -0.99000 0.70000 -1.44000
v -0.73000 0.59749 -1.19251
v -0.73000 0.70000 -1.44000
v -0.99000 0.70000 -1.44000
v -0.99000 0.70000 -1.44000
v -0.99000 0.59749 -1.68749
v -0.73000 0.70000 -1.44000
v -0.73000 0.59749 -1.68749
v -0.99000 0.59749 -1.68749
v -0.99000 0.59749 -1.68749
v -0.99000 0.35000 -1.79000
v -0.73000 0.59749 -1.68749
v -0.73000 0.35000 -1.79000
v -0.99000 0.35000 -1.79000
v -0.99000 0.35000 -1.79000
v -0.99000 0.10251 -1.68749
v -0.73000 0.35000 -1.79000
v -0.73000 0.10251 -1.68749
v -0.99000 0.10251 -1.68749
v -0.99000 0.10251 -1.68749
v -0.99000 0.00000 -1.44000
v -0.73000 0.10251 -1.68749
v -0.73000 0.00000 -1.44000
v -0.99000 0.00000 -1.44000
v -0.99000 0.00000 -1.44000
v -0.99000 0.10251 -1.19251
v -0.73000 0.00000 -1.44000
v -0.73000 0.10251 -1.19251
v -0.99000 0.10251 -1.19251
v -0.99000 0.10251 -1.19251
v -0.99000 0.35000 -1.09000
v -0.73000 0.10251 -1.19251
v -0.73000 0.35000 -1.09000
v 0.73000 0.35000 -1.09000
v 0.73000 0.59749 -1.19251
v 0.73000 0.70000 -1.44000
v 0.73000 0.59749 -1.68749
v 0.73000 0.35000 -1.79000
v 0.73000 0.10251 -1.68749
v 0.73000 0.00000 -1.44000
v 0.73000 0.10251 -1.19251
v 0.73000 0.35000 -1.44000
v 0.99000 0.35000 -1.09000
v 0.99000 0.59749 -1.19251
v 0.99000 0.70000 -1.44000
v 0.99000 0.59749 -1.68749
v 0.99000 0.35000 -1.79000
v 0.99000 0.10251 -1.68749
v 0.99000 0.00000 -1.44000
v 0.99000 0.10251 -1.19251
v 0.99000 0.35000 -1.44000
v 0.73000 0.35000 -1.09000
v 0.73000 0.35000 -1.09000
v 0.73000 0.59749 -1.19251
v 0.99000 0.35000 -1.09000
v 0.99000 0.59749 -1.19251
v 0.73000 0.59749 -1.19251
v 0.73000 0.59749 -1.19251
v 0.73000 0.70000 -1.44000
v 0.99000 0.59749 -1.19251
v 0.99000 0.70000 -1.44000
v 0.73000 0.70000 -1.44000
v 0.73000 0.70000 -1.44000
v 0.73000 0.59749 -1.68749
v 0.99000 0.70000 -1.44000
v 0.99000 0.59749 -1.68749
v 0.73000 0.59749 -1.68749
v 0.73000 0.59749 -1.68749
v 0.73000 0.35000 -1.79000
v 0.99000 0.59749 -1.68749
v 0.99000 0.35000 -1.79000
v 0.73000 0.35000 -1.79000
v 0.73000 0.35000 -1.79000
v 0.73000 0.10251 -1.68749
v 0.99000 0.35000 -1.79000
v 0.99000 0.10251 -1.68749
v 0.73000 0.10251 -1.68749
v 0.73000 0.10251 -1.68749
v 0.73000 0.00000 -1.44000
v 0.99000 0.10251 -1.68749
v 0.99000 0.00000 -1.44000
v 0.73000 0.00000 -1.44000
v 0.73000 0.00000 -1.44000
v 0.73000 0.10251 -1.19251
v 0.99000 0.00000 -1.44000
v 0.99000 0.10251 -1.19251
v 0.73000 0.10251 -1.19251
v 0.73000 0.10251 -1.19251
v 0.73000 0.35000 -1.09000
v 0.99000 0.10251 -1.19251
v 0.99000 0.35000 -1.09000
g Body
usemtl Body
g Glass
usemtl Glass
g Glow
usemtl Glow
g Rims
usemtl Rims
g Tires
usemtl Tires
g Body
usemtl Body
f 1 2 8
f 1 8 7
f 2 3 9
f 2 9 8
f 3 4 10
f 3 10 9
f 4 5 11
f 4 11 10
f 5 6 12
f 5 12 11
f 6 1 7
f 6 7 12
f 7 8 14
f 7 14 13
f 8 9 15
f 8 15 14
f 10 11 17
f 10 17 16
f 11 12 18
f 11 18 17
f 12 7 13
f 12 13 18
f 13 20 14
f 13 19 20
f 17 24 18
f 17 23 24
f 18 19 13
f 18 24 19
f 19 20 26
f 19 26 25
f 20 21 27
f 20 27 26
f 22 23 29
f 22 29 28
f 23 24 30
f 23 30 29
f 24 19 25
f 24 25 30
f 25 26 32
f 25 32 31
f 26 27 33
f 26 33 32
f 27 28 34
f 27 34 33
f 28 29 35
f 28 35 34
f 29 30 36
f 29 36 35
f 30 25 31
f 30 31 36
f 37 2 1
f 37 3 2
f 37 4 3
f 37 5 4
f 37 6 5
f 37 1 6
f 38 32 31
f 38 33 32
f 38 34 33
f 38 35 34
f 38 36 35
f 38 31 36
f 39 40 41
f 39 41 42
f 43 44 45
f 43 45 46
f 39 44 40
f 39 43 44
f 42 46 45
f 42 45 41
f 39 43 46
f 39 46 42
f 40 41 45
f 40 45 44
f 47 48 49
f 47 49 50
f 51 52 53
f 51 53 54
f 47 52 48
f 47 51 52
f 50 54 53
f 50 53 49
f 47 51 54
f 47 54 50
f 48 53 49
f 48 52 53
f 55 56 57
f 55 57 58
f 59 60 61
f 59 61 62
f 55 60 56
f 55 59 60
f 58 62 61
f 58 61 57
f 55 62 59
f 55 58 62
f 56 57 61
f 56 61 60
g Glass
usemtl Glass
f 9 10 16
f 9 16 15
f 14 21 15
f 14 20 21
f 15 22 16
f 15 21 22
f 16 23 17
f 16 22 23
f 21 22 28
f 21 28 27
g Glow
usemtl Glow
f 63 64 65
f 63 65 66
f 67 69 68
f 67 70 69
f 63 64 68
f 63 68 67
f 66 69 70
f 66 65 69
f 63 70 67
f 63 66 70
f 64 69 65
f 64 68 69
g Rims
usemtl Rims
f 79 71 72
f 79 72 73
f 79 73 74
f 79 74 75
f 79 75 76
f 79 76 77
f 79 77 78
f 79 78 71
f 88 80 81
f 88 81 82
f 88 82 83
f 88 83 84
f 88 84 85
f 88 85 86
f 88 86 87
f 88 87 80
f 137 130 129
f 137 131 130
f 137 132 131
f 137 133 132
f 137 134 133
f 137 135 134
f 137 136 135
f 137 129 136
f 146 139 138
f 146 140 139
f 146 141 140
f 146 142 141
f 146 143 142
f 146 144 143
f 146 145 144
f 146 138 145
f 195 187 188
f 195 188 189
f 195 189 190
f 195 190 191
f 195 191 192
f 195 192 193
f 195 193 194
f 195 194 187
f 204 196 197
f 204 197 198
f 204 198 199
f 204 199 200
f 204 200 201
f 204 201 202
f 204 202 203
f 204 203 196
f 253 246 245
f 253 247 246
f 253 248 247
f 253 249 248
f 253 250 249
f 253 251 250
f 253 252 251
f 253 245 252
f 262 255 254
f 262 256 255
f 262 257 256
f 262 258 257
f 262 259 258
f 262 260 259
f 262 261 260
f 262 254 261
g Tires
usemtl Tires
f 90 93 91
f 90 92 93
f 95 98 96
f 95 97 98
f 100 101 103
f 100 103 102
f 105 106 108
f 105 108 107
f 110 111 113
f 110 113 112
f 115 118 116
f 115 117 118
f 120 123 121
f 120 122 123
f 125 128 126
f 125 127 128
f 148 151 149
f 148 150 151
f 153 156 154
f 153 155 156
f 158 159 161
f 158 161 160
f 163 164 166
f 163 166 165
f 168 169 171
f 168 171 170
f 173 176 174
f 173 175 176
f 178 181 179
f 178 180 181
f 183 186 184
f 183 185 186
f 206 209 207
f 206 208 209
f 211 214 212
f 211 213 214
f 216 217 219
f 216 219 218
f 221 222 224
f 221 224 223
f 226 227 229
f 226 229 228
f 231 234 232
f 231 233 234
f 236 239 237
f 236 238 239
f 241 244 242
f 241 243 244
f 264 267 265
f 264 266 267
f 269 272 270
f 269 271 272
f 274 275 277
f 274 277 276
f 279 280 282
f 279 282 281
f 284 285 287
f 284 287 286
f 289 292 290
f 289 291 292
f 294 297 295
f 294 296 297
f 299 302 300
f 299 301 302
