# nomad_x - NEON RUSH RACING original asset (procedural, no third-party IP)
v -0.85140 0.48000 2.30000
v -0.82586 0.92000 2.30000
v -0.54450 1.36000 2.30000
v 0.54450 1.36000 2.30000
v 0.82586 0.92000 2.30000
v 0.85140 0.48000 2.30000
v -0.93060 0.48000 1.79400
v -0.90268 0.93200 1.79400
v -0.61380 1.38400 1.79400
v 0.61380 1.38400 1.79400
v 0.90268 0.93200 1.79400
v 0.93060 0.48000 1.79400
v -0.99000 0.48000 1.03500
v -0.96030 0.95000 1.03500
v -0.69300 1.42000 1.03500
v 0.69300 1.42000 1.03500
v 0.96030 0.95000 1.03500
v 0.99000 0.48000 1.03500
v -0.99000 0.48000 -0.73600
v -0.96030 0.95000 -0.73600
v -0.79200 1.42000 -0.73600
v 0.79200 1.42000 -0.73600
v 0.96030 0.95000 -0.73600
v 0.99000 0.48000 -0.73600
v -0.96030 0.48000 -1.01200
v -0.93149 1.34000 -1.01200
v -0.71280 2.20000 -1.01200
v 0.71280 2.20000 -1.01200
v 0.93149 1.34000 -1.01200
v 0.96030 0.48000 -1.01200
v -0.95040 0.48000 0.59800
v -0.92189 1.34000 0.59800
v -0.71280 2.20000 0.59800
v 0.71280 2.20000 0.59800
v 0.92189 1.34000 0.59800
v 0.95040 0.48000 0.59800
v -0.96030 0.48000 2.16200
v -0.93149 1.34000 2.16200
v -0.71280 2.20000 2.16200
v 0.71280 2.20000 2.16200
v 0.93149 1.34000 2.16200
v 0.96030 0.48000 2.16200
v -0.98010 0.48000 2.76000
v -0.95070 0.95000 2.76000
v -0.74250 1.42000 2.76000
v 0.74250 1.42000 2.76000
v 0.95070 0.95000 2.76000
v 0.98010 0.48000 2.76000
v -0.99000 0.48000 -1.26500
v -0.96030 0.95000 -1.26500
v -0.71280 1.42000 -1.26500
v 0.71280 1.42000 -1.26500
v 0.96030 0.95000 -1.26500
v 0.99000 0.48000 -1.26500
v -0.89100 0.48000 -2.30000
v -0.86427 0.93580 -2.30000
v -0.59400 1.39160 -2.30000
v 0.59400 1.39160 -2.30000
v 0.86427 0.93580 -2.30000
v 0.89100 0.48000 -2.30000
v 0.00000 0.92000 2.30000
v 0.00000 0.93580 -2.30000
v -0.51975 1.27000 2.25500
v 0.51975 1.27000 2.25500
v 0.51975 1.33000 2.25500
v -0.51975 1.33000 2.25500
v -0.51975 1.27000 2.30500
v 0.51975 1.27000 2.30500
v 0.51975 1.33000 2.30500
v -0.51975 1.33000 2.30500
v -0.47025 1.28500 -2.30500
v 0.47025 1.28500 -2.30500
v 0.47025 1.35500 -2.30500
v -0.47025 1.35500 -2.30500
v -0.47025 1.28500 -2.25500
v 0.47025 1.28500 -2.25500
v 0.47025 1.35500 -2.25500
v -0.47025 1.35500 -2.25500
v -0.94050 0.45500 -2.11600
v 0.94050 0.45500 -2.11600
v 0.94050 0.46500 -2.11600
v -0.94050 0.46500 -2.11600
v -0.94050 0.45500 2.11600
v 0.94050 0.45500 2.11600
v 0.94050 0.46500 2.11600
v -0.94050 0.46500 2.11600
v -0.97000 0.42000 1.98400
v -0.97000 0.60223 1.94241
v -0.97000 0.74837 1.82587
v -0.97000 0.82947 1.65746
v -0.97000 0.82947 1.47054
v -0.97000 0.74837 1.30213
v -0.97000 0.60223 1.18559
v -0.97000 0.42000 1.14400
v -0.97000 0.23777 1.18559
v -0.97000 0.09163 1.30213
v -0.97000 0.01053 1.47054
v -0.97000 0.01053 1.65746
v -0.97000 0.09163 1.82587
v -0.97000 0.23777 1.94241
v -0.97000 0.42000 1.56400
v -0.71000 0.42000 1.98400
v -0.71000 0.60223 1.94241
v -0.71000 0.74837 1.82587
v -0.71000 0.82947 1.65746
v -0.71000 0.82947 1.47054
v -0.71000 0.74837 1.30213
v -0.71000 0.60223 1.18559
v -0.71000 0.42000 1.14400
v -0.71000 0.23777 1.18559
v -0.71000 0.09163 1.30213
v -0.71000 0.01053 1.47054
v -0.71000 0.01053 1.65746
v -0.71000 0.09163 1.82587
v -0.71000 0.23777 1.94241
v -0.71000 0.42000 1.56400
v -0.97000 0.42000 1.98400
v -0.97000 0.42000 1.98400
v -0.97000 0.60223 1.94241
v -0.71000 0.42000 1.98400
v -0.71000 0.60223 1.94241
v -0.97000 0.60223 1.94241
v -0.97000 0.60223 1.94241
v -0.97000 0.74837 1.82587
v -0.71000 0.60223 1.94241
v -0.71000 0.74837 1.82587
v -0.97000 0.74837 1.82587
v -0.97000 0.74837 1.82587
v -0.97000 0.82947 1.65746
v -0.71000 0.74837 1.82587
v -0.71000 0.82947 1.65746
v -0.97000 0.82947 1.65746
v -0.97000 0.82947 1.65746
v -0.97000 0.82947 1.47054
v -0.71000 0.82947 1.65746
v -0.71000 0.82947 1.47054
v -0.97000 0.82947 1.47054
v -0.97000 0.82947 1.47054
v -0.97000 0.74837 1.30213
v -0.71000 0.82947 1.47054
v -0.71000 0.74837 1.30213
v -0.97000 0.74837 1.30213
v -0.97000 0.74837 1.30213
v -0.97000 0.60223 1.18559
v -0.71000 0.74837 1.30213
v -0.71000 0.60223 1.18559
v -0.97000 0.60223 1.18559
v -0.97000 0.60223 1.18559
v -0.97000 0.42000 1.14400
v -0.71000 0.60223 1.18559
v -0.71000 0.42000 1.14400
v -0.97000 0.42000 1.14400
v -0.97000 0.42000 1.14400
v -0.97000 0.23777 1.18559
v -0.71000 0.42000 1.14400
v -0.71000 0.23777 1.18559
v -0.97000 0.23777 1.18559
v -0.97000 0.23777 1.18559
v -0.97000 0.09163 1.30213
v -0.71000 0.23777 1.18559
v -0.71000 0.09163 1.30213
v -0.97000 0.09163 1.30213
v -0.97000 0.09163 1.30213
v -0.97000 0.01053 1.47054
v -0.71000 0.09163 1.30213
v -0.71000 0.01053 1.47054
v -0.97000 0.01053 1.47054
v -0.97000 0.01053 1.47054
v -0.97000 0.01053 1.65746
v -0.71000 0.01053 1.47054
v -0.71000 0.01053 1.65746
v -0.97000 0.01053 1.65746
v -0.97000 0.01053 1.65746
v -0.97000 0.09163 1.82587
v -0.71000 0.01053 1.65746
v -0.71000 0.09163 1.82587
v -0.97000 0.09163 1.82587
v -0.97000 0.09163 1.82587
v -0.97000 0.23777 1.94241
v -0.71000 0.09163 1.82587
v -0.71000 0.23777 1.94241
v -0.97000 0.23777 1.94241
v -0.97000 0.23777 1.94241
v -0.97000 0.42000 1.98400
v -0.71000 0.23777 1.94241
v -0.71000 0.42000 1.98400
v 0.71000 0.42000 1.98400
v 0.71000 0.60223 1.94241
v 0.71000 0.74837 1.82587
v 0.71000 0.82947 1.65746
v 0.71000 0.82947 1.47054
v 0.71000 0.74837 1.30213
v 0.71000 0.60223 1.18559
v 0.71000 0.42000 1.14400
v 0.71000 0.23777 1.18559
v 0.71000 0.09163 1.30213
v 0.71000 0.01053 1.47054
v 0.71000 0.01053 1.65746
v 0.71000 0.09163 1.82587
v 0.71000 0.23777 1.94241
v 0.71000 0.42000 1.56400
v 0.97000 0.42000 1.98400
v 0.97000 0.60223 1.94241
v 0.97000 0.74837 1.82587
v 0.97000 0.82947 1.65746
v 0.97000 0.82947 1.47054
v 0.97000 0.74837 1.30213
v 0.97000 0.60223 1.18559
v 0.97000 0.42000 1.14400
v 0.97000 0.23777 1.18559
v 0.97000 0.09163 1.30213
v 0.97000 0.01053 1.47054
v 0.97000 0.01053 1.65746
v 0.97000 0.09163 1.82587
v 0.97000 0.23777 1.94241
v 0.97000 0.42000 1.56400
v 0.71000 0.42000 1.98400
v 0.71000 0.42000 1.98400
v 0.71000 0.60223 1.94241
v 0.97000 0.42000 1.98400
v 0.97000 0.60223 1.94241
v 0.71000 0.60223 1.94241
v 0.71000 0.60223 1.94241
v 0.71000 0.74837 1.82587
v 0.97000 0.60223 1.94241
v 0.97000 0.74837 1.82587
v 0.71000 0.74837 1.82587
v 0.71000 0.74837 1.82587
v 0.71000 0.82947 1.65746
v 0.97000 0.74837 1.82587
v 0.97000 0.82947 1.65746
v 0.71000 0.82947 1.65746
v 0.71000 0.82947 1.65746
v 0.71000 0.82947 1.47054
v 0.97000 0.82947 1.65746
v 0.97000 0.82947 1.47054
v 0.71000 0.82947 1.47054
v 0.71000 0.82947 1.47054
v 0.71000 0.74837 1.30213
v 0.97000 0.82947 1.47054
v 0.97000 0.74837 1.30213
v 0.71000 0.74837 1.30213
v 0.71000 0.74837 1.30213
v 0.71000 0.60223 1.18559
v 0.97000 0.74837 1.30213
v 0.97000 0.60223 1.18559
v 0.71000 0.60223 1.18559
v 0.71000 0.60223 1.18559
v 0.71000 0.42000 1.14400
v 0.97000 0.60223 1.18559
v 0.97000 0.42000 1.14400
v 0.71000 0.42000 1.14400
v 0.71000 0.42000 1.14400
v 0.71000 0.23777 1.18559
v 0.97000 0.42000 1.14400
v 0.97000 0.23777 1.18559
v 0.71000 0.23777 1.18559
v 0.71000 0.23777 1.18559
v 0.71000 0.09163 1.30213
v 0.97000 0.23777 1.18559
v 0.97000 0.09163 1.30213
v 0.71000 0.09163 1.30213
v 0.71000 0.09163 1.30213
v 0.71000 0.01053 1.47054
v 0.97000 0.09163 1.30213
v 0.97000 0.01053 1.47054
v 0.71000 0.01053 1.47054
v 0.71000 0.01053 1.47054
v 0.71000 0.01053 1.65746
v 0.97000 0.01053 1.47054
v 0.97000 0.01053 1.65746
v 0.71000 0.01053 1.65746
v 0.71000 0.01053 1.65746
v 0.71000 0.09163 1.82587
v 0.97000 0.01053 1.65746
v 0.97000 0.09163 1.82587
v 0.71000 0.09163 1.82587
v 0.71000 0.09163 1.82587
v 0.71000 0.23777 1.94241
v 0.97000 0.09163 1.82587
v 0.97000 0.23777 1.94241
v 0.71000 0.23777 1.94241
v 0.71000 0.23777 1.94241
v 0.71000 0.42000 1.98400
v 0.97000 0.23777 1.94241
v 0.97000 0.42000 1.98400
v -0.97000 0.42000 -1.05200
v -0.97000 0.60223 -1.09359
v -0.97000 0.74837 -1.21013
v -0.97000 0.82947 -1.37854
v -0.97000 0.82947 -1.56546
v -0.97000 0.74837 -1.73387
v -0.97000 0.60223 -1.85041
v -0.97000 0.42000 -1.89200
v -0.97000 0.23777 -1.85041
v -0.97000 0.09163 -1.73387
v -0.97000 0.01053 -1.56546
v -0.97000 0.01053 -1.37854
v -0.97000 0.09163 -1.21013
v -0.97000 0.23777 -1.09359
v -0.97000 0.42000 -1.47200
v -0.71000 0.42000 -1.05200
v -0.71000 0.60223 -1.09359
v -0.71000 0.74837 -1.21013
v -0.71000 0.82947 -1.37854
v -0.71000 0.82947 -1.56546
v -0.71000 0.74837 -1.73387
v -0.71000 0.60223 -1.85041
v -0.71000 0.42000 -1.89200
v -0.71000 0.23777 -1.85041
v -0.71000 0.09163 -1.73387
v -0.71000 0.01053 -1.56546
v -0.71000 0.01053 -1.37854
v -0.71000 0.09163 -1.21013
v -0.71000 0.23777 -1.09359
v -0.71000 0.42000 -1.47200
v -0.97000 0.42000 -1.05200
v -0.97000 0.42000 -1.05200
v -0.97000 0.60223 -1.09359
v -0.71000 0.42000 -1.05200
v -0.71000 0.60223 -1.09359
v -0.97000 0.60223 -1.09359
v -0.97000 0.60223 -1.09359
v -0.97000 0.74837 -1.21013
v -0.71000 0.60223 -1.09359
v -0.71000 0.74837 -1.21013
v -0.97000 0.74837 -1.21013
v -0.97000 0.74837 -1.21013
v -0.97000 0.82947 -1.37854
v -0.71000 0.74837 -1.21013
v -0.71000 0.82947 -1.37854
v -0.97000 0.82947 -1.37854
v -0.97000 0.82947 -1.37854
v -0.97000 0.82947 -1.56546
v -0.71000 0.82947 -1.37854
v -0.71000 0.82947 -1.56546
v -0.97000 0.82947 -1.56546
v -0.97000 0.82947 -1.56546
v -0.97000 0.74837 -1.73387
v -0.71000 0.82947 -1.56546
v -0.71000 0.74837 -1.73387
v -0.97000 0.74837 -1.73387
v -0.97000 0.74837 -1.73387
v -0.97000 0.60223 -1.85041
v -0.71000 0.74837 -1.73387
v -0.71000 0.60223 -1.85041
v -0.97000 0.60223 -1.85041
v -0.97000 0.60223 -1.85041
v -0.97000 0.42000 -1.89200
v -0.71000 0.60223 -1.85041
v -0.71000 0.42000 -1.89200
v -0.97000 0.42000 -1.89200
v -0.97000 0.42000 -1.89200
v -0.97000 0.23777 -1.85041
v -0.71000 0.42000 -1.89200
v -0.71000 0.23777 -1.85041
v -0.97000 0.23777 -1.85041
v -0.97000 0.23777 -1.85041
v -0.97000 0.09163 -1.73387
v -0.71000 0.23777 -1.85041
v -0.71000 0.09163 -1.73387
v -0.97000 0.09163 -1.73387
v -0.97000 0.09163 -1.73387
v -0.97000 0.01053 -1.56546
v -0.71000 0.09163 -1.73387
v -0.71000 0.01053 -1.56546
v -0.97000 0.01053 -1.56546
v -0.97000 0.01053 -1.56546
v -0.97000 0.01053 -1.37854
v -0.71000 0.01053 -1.56546
v -0.71000 0.01053 -1.37854
v -0.97000 0.01053 -1.37854
v -0.97000 0.01053 -1.37854
v -0.97000 0.09163 -1.21013
v -0.71000 0.01053 -1.37854
v -0.71000 0.09163 -1.21013
v -0.97000 0.09163 -1.21013
v -0.97000 0.09163 -1.21013
v -0.97000 0.23777 -1.09359
v -0.71000 0.09163 -1.21013
v -0.71000 0.23777 -1.09359
v -0.97000 0.23777 -1.09359
v -0.97000 0.23777 -1.09359
v -0.97000 0.42000 -1.05200
v -0.71000 0.23777 -1.09359
v -0.71000 0.42000 -1.05200
v 0.71000 0.42000 -1.05200
v 0.71000 0.60223 -1.09359
v 0.71000 0.74837 -1.21013
v 0.71000 0.82947 -1.37854
v 0.71000 0.82947 -1.56546
v 0.71000 0.74837 -1.73387
v 0.71000 0.60223 -1.85041
v 0.71000 0.42000 -1.89200
v 0.71000 0.23777 -1.85041
v 0.71000 0.09163 -1.73387
v 0.71000 0.01053 -1.56546
v 0.71000 0.01053 -1.37854
v 0.71000 0.09163 -1.21013
v 0.71000 0.23777 -1.09359
v 0.71000 0.42000 -1.47200
v 0.97000 0.42000 -1.05200
v 0.97000 0.60223 -1.09359
v 0.97000 0.74837 -1.21013
v 0.97000 0.82947 -1.37854
v 0.97000 0.82947 -1.56546
v 0.97000 0.74837 -1.73387
v 0.97000 0.60223 -1.85041
v 0.97000 0.42000 -1.89200
v 0.97000 0.23777 -1.85041
v 0.97000 0.09163 -1.73387
v 0.97000 0.01053 -1.56546
v 0.97000 0.01053 -1.37854
v 0.97000 0.09163 -1.21013
v 0.97000 0.23777 -1.09359
v 0.97000 0.42000 -1.47200
v 0.71000 0.42000 -1.05200
v 0.71000 0.42000 -1.05200
v 0.71000 0.60223 -1.09359
v 0.97000 0.42000 -1.05200
v 0.97000 0.60223 -1.09359
v 0.71000 0.60223 -1.09359
v 0.71000 0.60223 -1.09359
v 0.71000 0.74837 -1.21013
v 0.97000 0.60223 -1.09359
v 0.97000 0.74837 -1.21013
v 0.71000 0.74837 -1.21013
v 0.71000 0.74837 -1.21013
v 0.71000 0.82947 -1.37854
v 0.97000 0.74837 -1.21013
v 0.97000 0.82947 -1.37854
v 0.71000 0.82947 -1.37854
v 0.71000 0.82947 -1.37854
v 0.71000 0.82947 -1.56546
v 0.97000 0.82947 -1.37854
v 0.97000 0.82947 -1.56546
v 0.71000 0.82947 -1.56546
v 0.71000 0.82947 -1.56546
v 0.71000 0.74837 -1.73387
v 0.97000 0.82947 -1.56546
v 0.97000 0.74837 -1.73387
v 0.71000 0.74837 -1.73387
v 0.71000 0.74837 -1.73387
v 0.71000 0.60223 -1.85041
v 0.97000 0.74837 -1.73387
v 0.97000 0.60223 -1.85041
v 0.71000 0.60223 -1.85041
v 0.71000 0.60223 -1.85041
v 0.71000 0.42000 -1.89200
v 0.97000 0.60223 -1.85041
v 0.97000 0.42000 -1.89200
v 0.71000 0.42000 -1.89200
v 0.71000 0.42000 -1.89200
v 0.71000 0.23777 -1.85041
v 0.97000 0.42000 -1.89200
v 0.97000 0.23777 -1.85041
v 0.71000 0.23777 -1.85041
v 0.71000 0.23777 -1.85041
v 0.71000 0.09163 -1.73387
v 0.97000 0.23777 -1.85041
v 0.97000 0.09163 -1.73387
v 0.71000 0.09163 -1.73387
v 0.71000 0.09163 -1.73387
v 0.71000 0.01053 -1.56546
v 0.97000 0.09163 -1.73387
v 0.97000 0.01053 -1.56546
v 0.71000 0.01053 -1.56546
v 0.71000 0.01053 -1.56546
v 0.71000 0.01053 -1.37854
v 0.97000 0.01053 -1.56546
v 0.97000 0.01053 -1.37854
v 0.71000 0.01053 -1.37854
v 0.71000 0.01053 -1.37854
v 0.71000 0.09163 -1.21013
v 0.97000 0.01053 -1.37854
v 0.97000 0.09163 -1.21013
v 0.71000 0.09163 -1.21013
v 0.71000 0.09163 -1.21013
v 0.71000 0.23777 -1.09359
v 0.97000 0.09163 -1.21013
v 0.97000 0.23777 -1.09359
v 0.71000 0.23777 -1.09359
v 0.71000 0.23777 -1.09359
v 0.71000 0.42000 -1.05200
v 0.97000 0.23777 -1.09359
v 0.97000 0.42000 -1.05200
g Body
usemtl Body
g Glass
usemtl Glass
g LightsF
usemtl LightsF
g LightsR
usemtl LightsR
g Glow
usemtl Glow
g Rims
usemtl Rims
g Tires
usemtl Tires
g Body
usemtl Body
f 1 2 8
f 1 8 7
f 2 3 9
f 2 9 8
f 3 4 10
f 3 10 9
f 4 5 11
f 4 11 10
f 5 6 12
f 5 12 11
f 6 1 7
f 6 7 12
f 7 8 14
f 7 14 13
f 8 9 15
f 8 15 14
f 9 10 16
f 9 16 15
f 10 11 17
f 10 17 16
f 11 12 18
f 11 18 17
f 12 7 13
f 12 13 18
f 13 14 20
f 13 20 19
f 14 15 21
f 14 21 20
f 15 16 22
f 15 22 21
f 16 17 23
f 16 23 22
f 17 18 24
f 17 24 23
f 18 13 19
f 18 19 24
f 19 20 26
f 19 26 25
f 20 21 27
f 20 27 26
f 22 23 29
f 22 29 28
f 23 24 30
f 23 30 29
f 24 19 25
f 24 25 30
f 25 32 26
f 25 31 32
f 29 36 30
f 29 35 36
f 30 31 25
f 30 36 31
f 31 38 32
f 31 37 38
f 35 42 36
f 35 41 42
f 36 37 31
f 36 42 37
f 37 44 38
f 37 43 44
f 38 45 39
f 38 44 45
f 40 47 41
f 40 46 47
f 41 48 42
f 41 47 48
f 42 43 37
f 42 48 43
f 43 44 50
f 43 50 49
f 44 45 51
f 44 51 50
f 45 46 52
f 45 52 51
f 46 47 53
f 46 53 52
f 47 48 54
f 47 54 53
f 48 43 49
f 48 49 54
f 49 50 56
f 49 56 55
f 50 51 57
f 50 57 56
f 51 52 58
f 51 58 57
f 52 53 59
f 52 59 58
f 53 54 60
f 53 60 59
f 54 49 55
f 54 55 60
f 61 2 1
f 61 3 2
f 61 4 3
f 61 5 4
f 61 6 5
f 61 1 6
f 62 56 55
f 62 57 56
f 62 58 57
f 62 59 58
f 62 60 59
f 62 55 60
g Glass
usemtl Glass
f 21 22 28
f 21 28 27
f 26 33 27
f 26 32 33
f 27 34 28
f 27 33 34
f 28 35 29
f 28 34 35
f 32 39 33
f 32 38 39
f 33 40 34
f 33 39 40
f 34 41 35
f 34 40 41
f 39 46 40
f 39 45 46
g LightsF
usemtl LightsF
f 63 64 65
f 63 65 66
f 67 68 69
f 67 69 70
f 63 68 64
f 63 67 68
f 66 70 69
f 66 69 65
f 63 67 70
f 63 70 66
f 64 65 69
f 64 69 68
g LightsR
usemtl LightsR
f 71 72 73
f 71 73 74
f 75 76 77
f 75 77 78
f 71 76 72
f 71 75 76
f 74 78 77
f 74 77 73
f 71 75 78
f 71 78 74
f 72 73 77
f 72 77 76
g Glow
usemtl Glow
f 79 80 81
f 79 81 82
f 83 85 84
f 83 86 85
f 79 80 84
f 79 84 83
f 82 85 86
f 82 81 85
f 79 86 83
f 79 82 86
f 80 85 81
f 80 84 85
g Rims
usemtl Rims
f 101 87 88
f 101 88 89
f 101 89 90
f 101 90 91
f 101 91 92
f 101 92 93
f 101 93 94
f 101 94 95
f 101 95 96
f 101 96 97
f 101 97 98
f 101 98 99
f 101 99 100
f 101 100 87
f 116 102 103
f 116 103 104
f 116 104 105
f 116 105 106
f 116 106 107
f 116 107 108
f 116 108 109
f 116 109 110
f 116 110 111
f 116 111 112
f 116 112 113
f 116 113 114
f 116 114 115
f 116 115 102
f 201 188 187
f 201 189 188
f 201 190 189
f 201 191 190
f 201 192 191
f 201 193 192
f 201 194 193
f 201 195 194
f 201 196 195
f 201 197 196
f 201 198 197
f 201 199 198
f 201 200 199
f 201 187 200
f 216 203 202
f 216 204 203
f 216 205 204
f 216 206 205
f 216 207 206
f 216 208 207
f 216 209 208
f 216 210 209
f 216 211 210
f 216 212 211
f 216 213 212
f 216 214 213
f 216 215 214
f 216 202 215
f 301 287 288
f 301 288 289
f 301 289 290
f 301 290 291
f 301 291 292
f 301 292 293
f 301 293 294
f 301 294 295
f 301 295 296
f 301 296 297
f 301 297 298
f 301 298 299
f 301 299 300
f 301 300 287
f 316 302 303
f 316 303 304
f 316 304 305
f 316 305 306
f 316 306 307
f 316 307 308
f 316 308 309
f 316 309 310
f 316 310 311
f 316 311 312
f 316 312 313
f 316 313 314
f 316 314 315
f 316 315 302
f 401 388 387
f 401 389 388
f 401 390 389
f 401 391 390
f 401 392 391
f 401 393 392
f 401 394 393
f 401 395 394
f 401 396 395
f 401 397 396
f 401 398 397
f 401 399 398
f 401 400 399
f 401 387 400
f 416 403 402
f 416 404 403
f 416 405 404
f 416 406 405
f 416 407 406
f 416 408 407
f 416 409 408
f 416 410 409
f 416 411 410
f 416 412 411
f 416 413 412
f 416 414 413
f 416 415 414
f 416 402 415
g Tires
usemtl Tires
f 118 121 119
f 118 120 121
f 123 126 124
f 123 125 126
f 128 131 129
f 128 130 131
f 133 136 134
f 133 135 136
f 138 139 141
f 138 141 140
f 143 144 146
f 143 146 145
f 148 149 151
f 148 151 150
f 153 154 156
f 153 156 155
f 158 161 159
f 158 160 161
f 163 166 164
f 163 165 166
f 168 171 169
f 168 170 171
f 173 176 174
f 173 175 176
f 178 181 179
f 178 180 181
f 183 186 184
f 183 185 186
f 218 221 219
f 218 220 221
f 223 226 224
f 223 225 226
f 228 231 229
f 228 230 231
f 233 236 234
f 233 235 236
f 238 239 241
f 238 241 240
f 243 244 246
f 243 246 245
f 248 249 251
f 248 251 250
f 253 254 256
f 253 256 255
f 258 261 259
f 258 260 261
f 263 266 264
f 263 265 266
f 268 271 269
f 268 270 271
f 273 276 274
f 273 275 276
f 278 281 279
f 278 280 281
f 283 286 284
f 283 285 286
f 318 321 319
f 318 320 321
f 323 326 324
f 323 325 326
f 328 331 329
f 328 330 331
f 333 336 334
f 333 335 336
f 338 339 341
f 338 341 340
f 343 344 346
f 343 346 345
f 348 349 351
f 348 351 350
f 353 354 356
f 353 356 355
f 358 359 361
f 358 361 360
f 363 366 364
f 363 365 366
f 368 371 369
f 368 370 371
f 373 376 374
f 373 375 376
f 378 381 379
f 378 380 381
f 383 386 384
f 383 385 386
f 418 421 419
f 418 420 421
f 423 426 424
f 423 425 426
f 428 431 429
f 428 430 431
f 433 436 434
f 433 435 436
f 438 439 441
f 438 441 440
f 443 444 446
f 443 446 445
f 448 449 451
f 448 451 450
f 453 454 456
f 453 456 455
f 458 459 461
f 458 461 460
f 463 466 464
f 463 465 466
f 468 471 469
f 468 470 471
f 473 476 474
f 473 475 476
f 478 481 479
f 478 480 481
f 483 486 484
f 483 485 486
