# titan_x_lod1 - NEON RUSH RACING original asset (procedural, no third-party IP)
v -0.86860 0.34000 2.45000
v -0.84254 0.72000 2.45000
v -0.55550 1.10000 2.45000
v 0.55550 1.10000 2.45000
v 0.84254 0.72000 2.45000
v 0.86860 0.34000 2.45000
v -1.01000 0.34000 1.10250
v -0.97970 0.77000 1.10250
v -0.70700 1.20000 1.10250
v 0.70700 1.20000 1.10250
v 0.97970 0.77000 1.10250
v 1.01000 0.34000 1.10250
v -0.97970 0.34000 -0.44100
v -0.95031 1.02000 -0.44100
v -0.68680 1.70000 -0.44100
v 0.68680 1.70000 -0.44100
v 0.95031 1.02000 -0.44100
v 0.97970 0.34000 -0.44100
v -0.97970 0.34000 2.00900
v -0.95031 1.02000 2.00900
v -0.68680 1.70000 2.00900
v 0.68680 1.70000 2.00900
v 0.95031 1.02000 2.00900
v 0.97970 0.34000 2.00900
v -1.01000 0.34000 -1.34750
v -0.97970 0.77000 -1.34750
v -0.70700 1.20000 -1.34750
v 0.70700 1.20000 -1.34750
v 0.97970 0.77000 -1.34750
v 1.01000 0.34000 -1.34750
v -0.90900 0.34000 -2.45000
v -0.88173 0.75800 -2.45000
v -0.60600 1.17600 -2.45000
v 0.60600 1.17600 -2.45000
v 0.88173 0.75800 -2.45000
v 0.90900 0.34000 -2.45000
v 0.00000 0.72000 2.45000
v 0.00000 0.75800 -2.45000
v -0.95950 0.31500 -2.25400
v 0.95950 0.31500 -2.25400
v 0.95950 0.32500 -2.25400
v -0.95950 0.32500 -2.25400
v -0.95950 0.31500 2.25400
v 0.95950 0.31500 2.25400
v 0.95950 0.32500 2.25400
v -0.95950 0.32500 2.25400
v -0.99000 0.38000 2.04600
v -0.99000 0.64870 1.93470
v -0.99000 0.76000 1.66600
v -0.99000 0.64870 1.39730
v -0.99000 0.38000 1.28600
v -0.99000 0.11130 1.39730
v -0.99000 0.00000 1.66600
v -0.99000 0.11130 1.93470
v -0.99000 0.38000 1.66600
v -0.73000 0.38000 2.04600
v -0.73000 0.64870 1.93470
v -0.73000 0.76000 1.66600
v -0.73000 0.64870 1.39730
v -0.73000 0.38000 1.28600
v -0.73000 0.11130 1.39730
v -0.73000 0.00000 1.66600
v -0.73000 0.11130 1.93470
v -0.73000 0.38000 1.66600
v -0.99000 0.38000 2.04600
v -0.99000 0.38000 2.04600
v -0.99000 0.64870 1.93470
v -0.73000 0.38000 2.04600
v -0.73000 0.64870 1.93470
v -0.99000 0.64870 1.93470
v -0.99000 0.64870 1.93470
v -0.99000 0.76000 1.66600
v -0.73000 0.64870 1.93470
v -0.73000 0.76000 1.66600
v -0.99000 0.76000 1.66600
v -0.99000 0.76000 1.66600
v -0.99000 0.64870 1.39730
v -0.73000 0.76000 1.66600
v -0.73000 0.64870 1.39730
v -0.99000 0.64870 1.39730
v -0.99000 0.64870 1.39730
v -0.99000 0.38000 1.28600
v -0.73000 0.64870 1.39730
v -0.73000 0.38000 1.28600
v -0.99000 0.38000 1.28600
v -0.99000 0.38000 1.28600
v -0.99000 0.11130 1.39730
v -0.73000 0.38000 1.28600
v -0.73000 0.11130 1.39730
v -0.99000 0.11130 1.39730
v -0.99000 0.11130 1.39730
v -0.99000 0.00000 1.66600
v -0.73000 0.11130 1.39730
v -0.73000 0.00000 1.66600
v -0.99000 0.00000 1.66600
v -0.99000 0.00000 1.66600
v -0.99000 0.11130 1.93470
v -0.73000 0.00000 1.66600
v -0.73000 0.11130 1.93470
v -0.99000 0.11130 1.93470
v -0.99000 0.11130 1.93470
v -0.99000 0.38000 2.04600
v -0.73000 0.11130 1.93470
v -0.73000 0.38000 2.04600
v 0.73000 0.38000 2.04600
v 0.73000 0.64870 1.93470
v 0.73000 0.76000 1.66600
v 0.73000 0.64870 1.39730
v 0.73000 0.38000 1.28600
v 0.73000 0.11130 1.39730
v 0.73000 0.00000 1.66600
v 0.73000 0.11130 1.93470
v 0.73000 0.38000 1.66600
v 0.99000 0.38000 2.04600
v 0.99000 0.64870 1.93470
v 0.99000 0.76000 1.66600
v 0.99000 0.64870 1.39730
v 0.99000 0.38000 1.28600
v 0.99000 0.11130 1.39730
v 0.99000 0.00000 1.66600
v 0.99000 0.11130 1.93470
v 0.99000 0.38000 1.66600
v 0.73000 0.38000 2.04600
v 0.73000 0.38000 2.04600
v 0.73000 0.64870 1.93470
v 0.99000 0.38000 2.04600
v 0.99000 0.64870 1.93470
v 0.73000 0.64870 1.93470
v 0.73000 0.64870 1.93470
v 0.73000 0.76000 1.66600
v 0.99000 0.64870 1.93470
v 0.99000 0.76000 1.66600
v 0.73000 0.76000 1.66600
v 0.73000 0.76000 1.66600
v 0.73000 0.64870 1.39730
v 0.99000 0.76000 1.66600
v 0.99000 0.64870 1.39730
v 0.73000 0.64870 1.39730
v 0.73000 0.64870 1.39730
v 0.73000 0.38000 1.28600
v 0.99000 0.64870 1.39730
v 0.99000 0.38000 1.28600
v 0.73000 0.38000 1.28600
v 0.73000 0.38000 1.28600
v 0.73000 0.11130 1.39730
v 0.99000 0.38000 1.28600
v 0.99000 0.11130 1.39730
v 0.73000 0.11130 1.39730
v 0.73000 0.11130 1.39730
v 0.73000 0.00000 1.66600
v 0.99000 0.11130 1.39730
v 0.99000 0.00000 1.66600
v 0.73000 0.00000 1.66600
v 0.73000 0.00000 1.66600
v 0.73000 0.11130 1.93470
v 0.99000 0.00000 1.66600
v 0.99000 0.11130 1.93470
v 0.73000 0.11130 1.93470
v 0.73000 0.11130 1.93470
v 0.73000 0.38000 2.04600
v 0.99000 0.11130 1.93470
v 0.99000 0.38000 2.04600
v -0.99000 0.38000 -1.18800
v -0.99000 0.64870 -1.29930
v -0.99000 0.76000 -1.56800
v -0.99000 0.64870 -1.83670
v -0.99000 0.38000 -1.94800
v -0.99000 0.11130 -1.83670
v -0.99000 0.00000 -1.56800
v -0.99000 0.11130 -1.29930
v -0.99000 0.38000 -1.56800
v -0.73000 0.38000 -1.18800
v -0.73000 0.64870 -1.29930
v -0.73000 0.76000 -1.56800
v -0.73000 0.64870 -1.83670
v -0.73000 0.38000 -1.94800
v -0.73000 0.11130 -1.83670
v -0.73000 0.00000 -1.56800
v -0.73000 0.11130 -1.29930
v -0.73000 0.38000 -1.56800
v -0.99000 0.38000 -1.18800
v -0.99000 0.38000 -1.18800
v -0.99000 0.64870 -1.29930
v -0.73000 0.38000 -1.18800
v -0.73000 0.64870 -1.29930
v -0.99000 0.64870 -1.29930
v -0.99000 0.64870 -1.29930
v -0.99000 0.76000 -1.56800
v -0.73000 0.64870 -1.29930
v -0.73000 0.76000 -1.56800
v -0.99000 0.76000 -1.56800
v -0.99000 0.76000 -1.56800
v -0.99000 0.64870 -1.83670
v -0.73000 0.76000 -1.56800
v -0.73000 0.64870 -1.83670
v -0.99000 0.64870 -1.83670
v -0.99000 0.64870 -1.83670
v -0.99000 0.38000 -1.94800
v -0.73000 0.64870 -1.83670
v -0.73000 0.38000 -1.94800
v -0.99000 0.38000 -1.94800
v -0.99000 0.38000 -1.94800
v -0.99000 0.11130 -1.83670
v -0.73000 0.38000 -1.94800
v -0.73000 0.11130 -1.83670
v -0.99000 0.11130 -1.83670
v -0.99000 0.11130 -1.83670
v -0.99000 0.00000 -1.56800
v -0.73000 0.11130 -1.83670
v -0.73000 0.00000 -1.56800
v -0.99000 0.00000 -1.56800
v -0.99000 0.00000 -1.56800
v -0.99000 0.11130 -1.29930
v -0.73000 0.00000 -1.56800
v -0.73000 0.11130 -1.29930
v -0.99000 0.11130 -1.29930
v -0.99000 0.11130 -1.29930
v -0.99000 0.38000 -1.18800
v -0.73000 0.11130 -1.29930
v -0.73000 0.38000 -1.18800
v 0.73000 0.38000 -1.18800
v 0.73000 0.64870 -1.29930
v 0.73000 0.76000 -1.56800
v 0.73000 0.64870 -1.83670
v 0.73000 0.38000 -1.94800
v 0.73000 0.11130 -1.83670
v 0.73000 0.00000 -1.56800
v 0.73000 0.11130 -1.29930
v 0.73000 0.38000 -1.56800
v 0.99000 0.38000 -1.18800
v 0.99000 0.64870 -1.29930
v 0.99000 0.76000 -1.56800
v 0.99000 0.64870 -1.83670
v 0.99000 0.38000 -1.94800
v 0.99000 0.11130 -1.83670
v 0.99000 0.00000 -1.56800
v 0.99000 0.11130 -1.29930
v 0.99000 0.38000 -1.56800
v 0.73000 0.38000 -1.18800
v 0.73000 0.38000 -1.18800
v 0.73000 0.64870 -1.29930
v 0.99000 0.38000 -1.18800
v 0.99000 0.64870 -1.29930
v 0.73000 0.64870 -1.29930
v 0.73000 0.64870 -1.29930
v 0.73000 0.76000 -1.56800
v 0.99000 0.64870 -1.29930
v 0.99000 0.76000 -1.56800
v 0.73000 0.76000 -1.56800
v 0.73000 0.76000 -1.56800
v 0.73000 0.64870 -1.83670
v 0.99000 0.76000 -1.56800
v 0.99000 0.64870 -1.83670
v 0.73000 0.64870 -1.83670
v 0.73000 0.64870 -1.83670
v 0.73000 0.38000 -1.94800
v 0.99000 0.64870 -1.83670
v 0.99000 0.38000 -1.94800
v 0.73000 0.38000 -1.94800
v 0.73000 0.38000 -1.94800
v 0.73000 0.11130 -1.83670
v 0.99000 0.38000 -1.94800
v 0.99000 0.11130 -1.83670
v 0.73000 0.11130 -1.83670
v 0.73000 0.11130 -1.83670
v 0.73000 0.00000 -1.56800
v 0.99000 0.11130 -1.83670
v 0.99000 0.00000 -1.56800
v 0.73000 0.00000 -1.56800
v 0.73000 0.00000 -1.56800
v 0.73000 0.11130 -1.29930
v 0.99000 0.00000 -1.56800
v 0.99000 0.11130 -1.29930
v 0.73000 0.11130 -1.29930
v 0.73000 0.11130 -1.29930
v 0.73000 0.38000 -1.18800
v 0.99000 0.11130 -1.29930
v 0.99000 0.38000 -1.18800
g Body
usemtl Body
g Glass
usemtl Glass
g Glow
usemtl Glow
g Rims
usemtl Rims
g Tires
usemtl Tires
g Body
usemtl Body
f 1 2 8
f 1 8 7
f 2 3 9
f 2 9 8
f 3 4 10
f 3 10 9
f 4 5 11
f 4 11 10
f 5 6 12
f 5 12 11
f 6 1 7
f 6 7 12
f 7 8 14
f 7 14 13
f 8 9 15
f 8 15 14
f 10 11 17
f 10 17 16
f 11 12 18
f 11 18 17
f 12 7 13
f 12 13 18
f 13 20 14
f 13 19 20
f 17 24 18
f 17 23 24
f 18 19 13
f 18 24 19
f 19 20 26
f 19 26 25
f 20 21 27
f 20 27 26
f 22 23 29
f 22 29 28
f 23 24 30
f 23 30 29
f 24 19 25
f 24 25 30
f 25 26 32
f 25 32 31
f 26 27 33
f 26 33 32
f 27 28 34
f 27 34 33
f 28 29 35
f 28 35 34
f 29 30 36
f 29 36 35
f 30 25 31
f 30 31 36
f 37 2 1
f 37 3 2
f 37 4 3
f 37 5 4
f 37 6 5
f 37 1 6
f 38 32 31
f 38 33 32
f 38 34 33
f 38 35 34
f 38 36 35
f 38 31 36
g Glass
usemtl Glass
f 9 10 16
f 9 16 15
f 14 21 15
f 14 20 21
f 15 22 16
f 15 21 22
f 16 23 17
f 16 22 23
f 21 22 28
f 21 28 27
g Glow
usemtl Glow
f 39 40 41
f 39 41 42
f 43 45 44
f 43 46 45
f 39 40 44
f 39 44 43
f 42 45 46
f 42 41 45
f 39 46 43
f 39 42 46
f 40 45 41
f 40 44 45
g Rims
usemtl Rims
f 55 47 48
f 55 48 49
f 55 49 50
f 55 50 51
f 55 51 52
f 55 52 53
f 55 53 54
f 55 54 47
f 64 56 57
f 64 57 58
f 64 58 59
f 64 59 60
f 64 60 61
f 64 61 62
f 64 62 63
f 64 63 56
f 113 106 105
f 113 107 106
f 113 108 107
f 113 109 108
f 113 110 109
f 113 111 110
f 113 112 111
f 113 105 112
f 122 115 114
f 122 116 115
f 122 117 116
f 122 118 117
f 122 119 118
f 122 120 119
f 122 121 120
f 122 114 121
f 171 163 164
f 171 164 165
f 171 165 166
f 171 166 167
f 171 167 168
f 171 168 169
f 171 169 170
f 171 170 163
f 180 172 173
f 180 173 174
f 180 174 175
f 180 175 176
f 180 176 177
f 180 177 178
f 180 178 179
f 180 179 172
f 229 222 221
f 229 223 222
f 229 224 223
f 229 225 224
f 229 226 225
f 229 227 226
f 229 228 227
f 229 221 228
f 238 231 230
f 238 232 231
f 238 233 232
f 238 234 233
f 238 235 234
f 238 236 235
f 238 237 236
f 238 230 237
g Tires
usemtl Tires
f 66 69 67
f 66 68 69
f 71 74 72
f 71 73 74
f 76 77 79
f 76 79 78
f 81 82 84
f 81 84 83
f 86 87 89
f 86 89 88
f 91 94 92
f 91 93 94
f 96 99 97
f 96 98 99
f 101 104 102
f 101 103 104
f 124 127 125
f 124 126 127
f 129 132 130
f 129 131 132
f 134 135 137
f 134 137 136
f 139 140 142
f 139 142 141
f 144 145 147
f 144 147 146
f 149 152 150
f 149 151 152
f 154 157 155
f 154 156 157
f 159 162 160
f 159 161 162
f 182 185 183
f 182 184 185
f 187 190 188
f 187 189 190
f 192 193 195
f 192 195 194
f 197 198 200
f 197 200 199
f 202 203 205
f 202 205 204
f 207 210 208
f 207 209 210
f 212 215 213
f 212 214 215
f 217 220 218
f 217 219 220
f 240 243 241
f 240 242 243
f 245 248 246
f 245 247 248
f 250 251 253
f 250 253 252
f 255 256 258
f 255 258 257
f 260 261 263
f 260 263 262
f 265 268 266
f 265 267 268
f 270 273 271
f 270 272 273
f 275 278 276
f 275 277 278
