# traffic_van - NEON RUSH RACING original asset (procedural, no third-party IP)
v -0.85500 0.32000 2.40000
v -0.82935 0.92000 2.40000
v -0.57000 1.52000 2.40000
v 0.57000 1.52000 2.40000
v 0.82935 0.92000 2.40000
v 0.85500 0.32000 2.40000
v -0.95000 0.32000 0.86400
v -0.92150 0.92000 0.86400
v -0.68400 1.52000 0.86400
v 0.68400 1.52000 0.86400
v 0.92150 0.92000 0.86400
v 0.95000 0.32000 0.86400
v -0.95000 0.32000 0.09600
v -0.92150 0.97000 0.09600
v -0.62700 1.62000 0.09600
v 0.62700 1.62000 0.09600
v 0.92150 0.97000 0.09600
v 0.95000 0.32000 0.09600
v -0.95000 0.32000 -1.34400
v -0.92150 0.97000 -1.34400
v -0.62700 1.62000 -1.34400
v 0.62700 1.62000 -1.34400
v 0.92150 0.97000 -1.34400
v 0.95000 0.32000 -1.34400
v -0.87400 0.32000 -2.40000
v -0.84778 0.92000 -2.40000
v -0.57000 1.52000 -2.40000
v 0.57000 1.52000 -2.40000
v 0.84778 0.92000 -2.40000
v 0.87400 0.32000 -2.40000
v 0.00000 0.92000 2.40000
v 0.00000 0.92000 -2.40000
v -0.47500 1.37000 2.35500
v 0.47500 1.37000 2.35500
v 0.47500 1.43000 2.35500
v -0.47500 1.43000 2.35500
v -0.47500 1.37000 2.40500
v 0.47500 1.37000 2.40500
v 0.47500 1.43000 2.40500
v -0.47500 1.43000 2.40500
v -0.42750 1.39000 -2.40500
v 0.42750 1.39000 -2.40500
v 0.42750 1.45000 -2.40500
v -0.42750 1.45000 -2.40500
v -0.42750 1.39000 -2.35500
v 0.42750 1.39000 -2.35500
v 0.42750 1.45000 -2.35500
v -0.42750 1.45000 -2.35500
v -0.91000 0.33000 1.91400
v -0.91000 0.56335 1.81735
v -0.91000 0.66000 1.58400
v -0.91000 0.56335 1.35065
v -0.91000 0.33000 1.25400
v -0.91000 0.09665 1.35065
v -0.91000 0.00000 1.58400
v -0.91000 0.09665 1.81735
v -0.91000 0.33000 1.58400
v -0.67000 0.33000 1.91400
v -0.67000 0.56335 1.81735
v -0.67000 0.66000 1.58400
v -0.67000 0.56335 1.35065
v -0.67000 0.33000 1.25400
v -0.67000 0.09665 1.35065
v -0.67000 0.00000 1.58400
v -0.67000 0.09665 1.81735
v -0.67000 0.33000 1.58400
v -0.91000 0.33000 1.91400
v -0.91000 0.33000 1.91400
v -0.91000 0.56335 1.81735
v -0.67000 0.33000 1.91400
v -0.67000 0.56335 1.81735
v -0.91000 0.56335 1.81735
v -0.91000 0.56335 1.81735
v -0.91000 0.66000 1.58400
v -0.67000 0.56335 1.81735
v -0.67000 0.66000 1.58400
v -0.91000 0.66000 1.58400
v -0.91000 0.66000 1.58400
v -0.91000 0.56335 1.35065
v -0.67000 0.66000 1.58400
v -0.67000 0.56335 1.35065
v -0.91000 0.56335 1.35065
v -0.91000 0.56335 1.35065
v -0.91000 0.33000 1.25400
v -0.67000 0.56335 1.35065
v -0.67000 0.33000 1.25400
v -0.91000 0.33000 1.25400
v -0.91000 0.33000 1.25400
v -0.91000 0.09665 1.35065
v -0.67000 0.33000 1.25400
v -0.67000 0.09665 1.35065
v -0.91000 0.09665 1.35065
v -0.91000 0.09665 1.35065
v -0.91000 0.00000 1.58400
v -0.67000 0.09665 1.35065
v -0.67000 0.00000 1.58400
v -0.91000 0.00000 1.58400
v -0.91000 0.00000 1.58400
v -0.91000 0.09665 1.81735
v -0.67000 0.00000 1.58400
v -0.67000 0.09665 1.81735
v -0.91000 0.09665 1.81735
v -0.91000 0.09665 1.81735
v -0.91000 0.33000 1.91400
v -0.67000 0.09665 1.81735
v -0.67000 0.33000 1.91400
v 0.67000 0.33000 1.91400
v 0.67000 0.56335 1.81735
v 0.67000 0.66000 1.58400
v 0.67000 0.56335 1.35065
v 0.67000 0.33000 1.25400
v 0.67000 0.09665 1.35065
v 0.67000 0.00000 1.58400
v 0.67000 0.09665 1.81735
v 0.67000 0.33000 1.58400
v 0.91000 0.33000 1.91400
v 0.91000 0.56335 1.81735
v 0.91000 0.66000 1.58400
v 0.91000 0.56335 1.35065
v 0.91000 0.33000 1.25400
v 0.91000 0.09665 1.35065
v 0.91000 0.00000 1.58400
v 0.91000 0.09665 1.81735
v 0.91000 0.33000 1.58400
v 0.67000 0.33000 1.91400
v 0.67000 0.33000 1.91400
v 0.67000 0.56335 1.81735
v 0.91000 0.33000 1.91400
v 0.91000 0.56335 1.81735
v 0.67000 0.56335 1.81735
v 0.67000 0.56335 1.81735
v 0.67000 0.66000 1.58400
v 0.91000 0.56335 1.81735
v 0.91000 0.66000 1.58400
v 0.67000 0.66000 1.58400
v 0.67000 0.66000 1.58400
v 0.67000 0.56335 1.35065
v 0.91000 0.66000 1.58400
v 0.91000 0.56335 1.35065
v 0.67000 0.56335 1.35065
v 0.67000 0.56335 1.35065
v 0.67000 0.33000 1.25400
v 0.91000 0.56335 1.35065
v 0.91000 0.33000 1.25400
v 0.67000 0.33000 1.25400
v 0.67000 0.33000 1.25400
v 0.67000 0.09665 1.35065
v 0.91000 0.33000 1.25400
v 0.91000 0.09665 1.35065
v 0.67000 0.09665 1.35065
v 0.67000 0.09665 1.35065
v 0.67000 0.00000 1.58400
v 0.91000 0.09665 1.35065
v 0.91000 0.00000 1.58400
v 0.67000 0.00000 1.58400
v 0.67000 0.00000 1.58400
v 0.67000 0.09665 1.81735
v 0.91000 0.00000 1.58400
v 0.91000 0.09665 1.81735
v 0.67000 0.09665 1.81735
v 0.67000 0.09665 1.81735
v 0.67000 0.33000 1.91400
v 0.91000 0.09665 1.81735
v 0.91000 0.33000 1.91400
v -0.91000 0.33000 -1.15800
v -0.91000 0.56335 -1.25465
v -0.91000 0.66000 -1.48800
v -0.91000 0.56335 -1.72135
v -0.91000 0.33000 -1.81800
v -0.91000 0.09665 -1.72135
v -0.91000 0.00000 -1.48800
v -0.91000 0.09665 -1.25465
v -0.91000 0.33000 -1.48800
v -0.67000 0.33000 -1.15800
v -0.67000 0.56335 -1.25465
v -0.67000 0.66000 -1.48800
v -0.67000 0.56335 -1.72135
v -0.67000 0.33000 -1.81800
v -0.67000 0.09665 -1.72135
v -0.67000 0.00000 -1.48800
v -0.67000 0.09665 -1.25465
v -0.67000 0.33000 -1.48800
v -0.91000 0.33000 -1.15800
v -0.91000 0.33000 -1.15800
v -0.91000 0.56335 -1.25465
v -0.67000 0.33000 -1.15800
v -0.67000 0.56335 -1.25465
v -0.91000 0.56335 -1.25465
v -0.91000 0.56335 -1.25465
v -0.91000 0.66000 -1.48800
v -0.67000 0.56335 -1.25465
v -0.67000 0.66000 -1.48800
v -0.91000 0.66000 -1.48800
v -0.91000 0.66000 -1.48800
v -0.91000 0.56335 -1.72135
v -0.67000 0.66000 -1.48800
v -0.67000 0.56335 -1.72135
v -0.91000 0.56335 -1.72135
v -0.91000 0.56335 -1.72135
v -0.91000 0.33000 -1.81800
v -0.67000 0.56335 -1.72135
v -0.67000 0.33000 -1.81800
v -0.91000 0.33000 -1.81800
v -0.91000 0.33000 -1.81800
v -0.91000 0.09665 -1.72135
v -0.67000 0.33000 -1.81800
v -0.67000 0.09665 -1.72135
v -0.91000 0.09665 -1.72135
v -0.91000 0.09665 -1.72135
v -0.91000 0.00000 -1.48800
v -0.67000 0.09665 -1.72135
v -0.67000 0.00000 -1.48800
v -0.91000 0.00000 -1.48800
v -0.91000 0.00000 -1.48800
v -0.91000 0.09665 -1.25465
v -0.67000 0.00000 -1.48800
v -0.67000 0.09665 -1.25465
v -0.91000 0.09665 -1.25465
v -0.91000 0.09665 -1.25465
v -0.91000 0.33000 -1.15800
v -0.67000 0.09665 -1.25465
v -0.67000 0.33000 -1.15800
v 0.67000 0.33000 -1.15800
v 0.67000 0.56335 -1.25465
v 0.67000 0.66000 -1.48800
v 0.67000 0.56335 -1.72135
v 0.67000 0.33000 -1.81800
v 0.67000 0.09665 -1.72135
v 0.67000 0.00000 -1.48800
v 0.67000 0.09665 -1.25465
v 0.67000 0.33000 -1.48800
v 0.91000 0.33000 -1.15800
v 0.91000 0.56335 -1.25465
v 0.91000 0.66000 -1.48800
v 0.91000 0.56335 -1.72135
v 0.91000 0.33000 -1.81800
v 0.91000 0.09665 -1.72135
v 0.91000 0.00000 -1.48800
v 0.91000 0.09665 -1.25465
v 0.91000 0.33000 -1.48800
v 0.67000 0.33000 -1.15800
v 0.67000 0.33000 -1.15800
v 0.67000 0.56335 -1.25465
v 0.91000 0.33000 -1.15800
v 0.91000 0.56335 -1.25465
v 0.67000 0.56335 -1.25465
v 0.67000 0.56335 -1.25465
v 0.67000 0.66000 -1.48800
v 0.91000 0.56335 -1.25465
v 0.91000 0.66000 -1.48800
v 0.67000 0.66000 -1.48800
v 0.67000 0.66000 -1.48800
v 0.67000 0.56335 -1.72135
v 0.91000 0.66000 -1.48800
v 0.91000 0.56335 -1.72135
v 0.67000 0.56335 -1.72135
v 0.67000 0.56335 -1.72135
v 0.67000 0.33000 -1.81800
v 0.91000 0.56335 -1.72135
v 0.91000 0.33000 -1.81800
v 0.67000 0.33000 -1.81800
v 0.67000 0.33000 -1.81800
v 0.67000 0.09665 -1.72135
v 0.91000 0.33000 -1.81800
v 0.91000 0.09665 -1.72135
v 0.67000 0.09665 -1.72135
v 0.67000 0.09665 -1.72135
v 0.67000 0.00000 -1.48800
v 0.91000 0.09665 -1.72135
v 0.91000 0.00000 -1.48800
v 0.67000 0.00000 -1.48800
v 0.67000 0.00000 -1.48800
v 0.67000 0.09665 -1.25465
v 0.91000 0.00000 -1.48800
v 0.91000 0.09665 -1.25465
v 0.67000 0.09665 -1.25465
v 0.67000 0.09665 -1.25465
v 0.67000 0.33000 -1.15800
v 0.91000 0.09665 -1.25465
v 0.91000 0.33000 -1.15800
g Body
usemtl Body
g Glass
usemtl Glass
g LightsF
usemtl LightsF
g LightsR
usemtl LightsR
g Rims
usemtl Rims
g Tires
usemtl Tires
g Body
usemtl Body
f 1 2 8
f 1 8 7
f 5 6 12
f 5 12 11
f 6 1 7
f 6 7 12
f 7 8 14
f 7 14 13
f 11 12 18
f 11 18 17
f 12 7 13
f 12 13 18
f 13 14 20
f 13 20 19
f 17 18 24
f 17 24 23
f 18 13 19
f 18 19 24
f 19 20 26
f 19 26 25
f 23 24 30
f 23 30 29
f 24 19 25
f 24 25 30
f 31 2 1
f 31 3 2
f 31 4 3
f 31 5 4
f 31 6 5
f 31 1 6
f 32 26 25
f 32 27 26
f 32 28 27
f 32 29 28
f 32 30 29
f 32 25 30
g Glass
usemtl Glass
f 2 3 9
f 2 9 8
f 3 4 10
f 3 10 9
f 4 5 11
f 4 11 10
f 8 9 15
f 8 15 14
f 9 10 16
f 9 16 15
f 10 11 17
f 10 17 16
f 14 15 21
f 14 21 20
f 15 16 22
f 15 22 21
f 16 17 23
f 16 23 22
f 20 21 27
f 20 27 26
f 21 22 28
f 21 28 27
f 22 23 29
f 22 29 28
g LightsF
usemtl LightsF
f 33 34 35
f 33 35 36
f 37 38 39
f 37 39 40
f 33 38 34
f 33 37 38
f 36 40 39
f 36 39 35
f 33 37 40
f 33 40 36
f 34 35 39
f 34 39 38
g LightsR
usemtl LightsR
f 41 42 43
f 41 43 44
f 45 46 47
f 45 47 48
f 41 46 42
f 41 45 46
f 44 48 47
f 44 47 43
f 41 45 48
f 41 48 44
f 42 43 47
f 42 47 46
g Rims
usemtl Rims
f 57 49 50
f 57 50 51
f 57 51 52
f 57 52 53
f 57 53 54
f 57 54 55
f 57 55 56
f 57 56 49
f 66 58 59
f 66 59 60
f 66 60 61
f 66 61 62
f 66 62 63
f 66 63 64
f 66 64 65
f 66 65 58
f 115 108 107
f 115 109 108
f 115 110 109
f 115 111 110
f 115 112 111
f 115 113 112
f 115 114 113
f 115 107 114
f 124 117 116
f 124 118 117
f 124 119 118
f 124 120 119
f 124 121 120
f 124 122 121
f 124 123 122
f 124 116 123
f 173 165 166
f 173 166 167
f 173 167 168
f 173 168 169
f 173 169 170
f 173 170 171
f 173 171 172
f 173 172 165
f 182 174 175
f 182 175 176
f 182 176 177
f 182 177 178
f 182 178 179
f 182 179 180
f 182 180 181
f 182 181 174
f 231 224 223
f 231 225 224
f 231 226 225
f 231 227 226
f 231 228 227
f 231 229 228
f 231 230 229
f 231 223 230
f 240 233 232
f 240 234 233
f 240 235 234
f 240 236 235
f 240 237 236
f 240 238 237
f 240 239 238
f 240 232 239
g Tires
usemtl Tires
f 68 71 69
f 68 70 71
f 73 76 74
f 73 75 76
f 78 79 81
f 78 81 80
f 83 84 86
f 83 86 85
f 88 89 91
f 88 91 90
f 93 96 94
f 93 95 96
f 98 101 99
f 98 100 101
f 103 106 104
f 103 105 106
f 126 129 127
f 126 128 129
f 131 134 132
f 131 133 134
f 136 137 139
f 136 139 138
f 141 142 144
f 141 144 143
f 146 147 149
f 146 149 148
f 151 154 152
f 151 153 154
f 156 159 157
f 156 158 159
f 161 164 162
f 161 163 164
f 184 187 185
f 184 186 187
f 189 192 190
f 189 191 192
f 194 195 197
f 194 197 196
f 199 200 202
f 199 202 201
f 204 205 207
f 204 207 206
f 209 212 210
f 209 211 212
f 214 217 215
f 214 216 217
f 219 222 220
f 219 221 222
f 242 245 243
f 242 244 245
f 247 250 248
f 247 249 250
f 252 253 255
f 252 255 254
f 257 258 260
f 257 260 259
f 262 263 265
f 262 265 264
f 267 270 268
f 267 269 270
f 272 275 273
f 272 274 275
f 277 280 278
f 277 279 280
