# vortex_gt - NEON RUSH RACING original asset (procedural, no third-party IP)
v -0.84280 0.28000 2.35000
v -0.81752 0.57000 2.35000
v -0.53900 0.86000 2.35000
v 0.53900 0.86000 2.35000
v 0.81752 0.57000 2.35000
v 0.84280 0.28000 2.35000
v -0.92120 0.28000 1.83300
v -0.89356 0.60200 1.83300
v -0.60760 0.92400 1.83300
v 0.60760 0.92400 1.83300
v 0.89356 0.60200 1.83300
v 0.92120 0.28000 1.83300
v -0.98000 0.28000 1.05750
v -0.95060 0.65000 1.05750
v -0.68600 1.02000 1.05750
v 0.68600 1.02000 1.05750
v 0.95060 0.65000 1.05750
v 0.98000 0.28000 1.05750
v -0.98000 0.28000 -0.47000
v -0.95060 0.65000 -0.47000
v -0.78400 1.02000 -0.47000
v 0.78400 1.02000 -0.47000
v 0.95060 0.65000 -0.47000
v 0.98000 0.28000 -0.47000
v -0.95060 0.28000 -0.75200
v -0.92208 0.83000 -0.75200
v -0.62720 1.38000 -0.75200
v 0.62720 1.38000 -0.75200
v 0.92208 0.83000 -0.75200
v 0.95060 0.28000 -0.75200
v -0.94080 0.28000 0.47000
v -0.91258 0.83000 0.47000
v -0.62720 1.38000 0.47000
v 0.62720 1.38000 0.47000
v 0.91258 0.83000 0.47000
v 0.94080 0.28000 0.47000
v -0.95060 0.28000 1.64500
v -0.92208 0.83000 1.64500
v -0.62720 1.38000 1.64500
v 0.62720 1.38000 1.64500
v 0.92208 0.83000 1.64500
v 0.95060 0.28000 1.64500
v -0.97020 0.28000 2.25600
v -0.94109 0.65000 2.25600
v -0.73500 1.02000 2.25600
v 0.73500 1.02000 2.25600
v 0.94109 0.65000 2.25600
v 0.97020 0.28000 2.25600
v -0.98000 0.28000 -1.29250
v -0.95060 0.65000 -1.29250
v -0.70560 1.02000 -1.29250
v 0.70560 1.02000 -1.29250
v 0.95060 0.65000 -1.29250
v 0.98000 0.28000 -1.29250
v -0.88200 0.28000 -2.35000
v -0.85554 0.63980 -2.35000
v -0.58800 0.99960 -2.35000
v 0.58800 0.99960 -2.35000
v 0.85554 0.63980 -2.35000
v 0.88200 0.28000 -2.35000
v 0.00000 0.57000 2.35000
v 0.00000 0.63980 -2.35000
v -0.80360 1.25500 -2.34000
v 0.80360 1.25500 -2.34000
v 0.80360 1.30500 -2.34000
v -0.80360 1.30500 -2.34000
v -0.80360 1.25500 -2.06000
v 0.80360 1.25500 -2.06000
v 0.80360 1.30500 -2.06000
v -0.80360 1.30500 -2.06000
v -0.76860 1.02000 -2.26000
v -0.71860 1.02000 -2.26000
v -0.71860 1.28000 -2.26000
v -0.76860 1.28000 -2.26000
v -0.76860 1.02000 -2.14000
v -0.71860 1.02000 -2.14000
v -0.71860 1.28000 -2.14000
v -0.76860 1.28000 -2.14000
v 0.71860 1.02000 -2.26000
v 0.76860 1.02000 -2.26000
v 0.76860 1.28000 -2.26000
v 0.71860 1.28000 -2.26000
v 0.71860 1.02000 -2.14000
v 0.76860 1.02000 -2.14000
v 0.76860 1.28000 -2.14000
v 0.71860 1.28000 -2.14000
v -0.51450 0.87000 2.30500
v 0.51450 0.87000 2.30500
v 0.51450 0.93000 2.30500
v -0.51450 0.93000 2.30500
v -0.51450 0.87000 2.35500
v 0.51450 0.87000 2.35500
v 0.51450 0.93000 2.35500
v -0.51450 0.93000 2.35500
v -0.46550 0.88500 -2.35500
v 0.46550 0.88500 -2.35500
v 0.46550 0.95500 -2.35500
v -0.46550 0.95500 -2.35500
v -0.46550 0.88500 -2.30500
v 0.46550 0.88500 -2.30500
v 0.46550 0.95500 -2.30500
v -0.46550 0.95500 -2.30500
v -0.93100 0.25500 -2.16200
v 0.93100 0.25500 -2.16200
v 0.93100 0.26500 -2.16200
v -0.93100 0.26500 -2.16200
v -0.93100 0.25500 2.16200
v 0.93100 0.25500 2.16200
v 0.93100 0.26500 2.16200
v -0.93100 0.26500 2.16200
v -0.96000 0.35000 1.94800
v -0.96000 0.50186 1.91334
v -0.96000 0.62364 1.81622
v -0.96000 0.69122 1.67588
v -0.96000 0.69122 1.52012
v -0.96000 0.62364 1.37978
v -0.96000 0.50186 1.28266
v -0.96000 0.35000 1.24800
v -0.96000 0.19814 1.28266
v -0.96000 0.07636 1.37978
v -0.96000 0.00878 1.52012
v -0.96000 0.00878 1.67588
v -0.96000 0.07636 1.81622
v -0.96000 0.19814 1.91334
v -0.96000 0.35000 1.59800
v -0.70000 0.35000 1.94800
v -0.70000 0.50186 1.91334
v -0.70000 0.62364 1.81622
v -0.70000 0.69122 1.67588
v -0.70000 0.69122 1.52012
v -0.70000 0.62364 1.37978
v -0.70000 0.50186 1.28266
v -0.70000 0.35000 1.24800
v -0.70000 0.19814 1.28266
v -0.70000 0.07636 1.37978
v -0.70000 0.00878 1.52012
v -0.70000 0.00878 1.67588
v -0.70000 0.07636 1.81622
v -0.70000 0.19814 1.91334
v -0.70000 0.35000 1.59800
v -0.96000 0.35000 1.94800
v -0.96000 0.35000 1.94800
v -0.96000 0.50186 1.91334
v -0.70000 0.35000 1.94800
v -0.70000 0.50186 1.91334
v -0.96000 0.50186 1.91334
v -0.96000 0.50186 1.91334
v -0.96000 0.62364 1.81622
v -0.70000 0.50186 1.91334
v -0.70000 0.62364 1.81622
v -0.96000 0.62364 1.81622
v -0.96000 0.62364 1.81622
v -0.96000 0.69122 1.67588
v -0.70000 0.62364 1.81622
v -0.70000 0.69122 1.67588
v -0.96000 0.69122 1.67588
v -0.96000 0.69122 1.67588
v -0.96000 0.69122 1.52012
v -0.70000 0.69122 1.67588
v -0.70000 0.69122 1.52012
v -0.96000 0.69122 1.52012
v -0.96000 0.69122 1.52012
v -0.96000 0.62364 1.37978
v -0.70000 0.69122 1.52012
v -0.70000 0.62364 1.37978
v -0.96000 0.62364 1.37978
v -0.96000 0.62364 1.37978
v -0.96000 0.50186 1.28266
v -0.70000 0.62364 1.37978
v -0.70000 0.50186 1.28266
v -0.96000 0.50186 1.28266
v -0.96000 0.50186 1.28266
v -0.96000 0.35000 1.24800
v -0.70000 0.50186 1.28266
v -0.70000 0.35000 1.24800
v -0.96000 0.35000 1.24800
v -0.96000 0.35000 1.24800
v -0.96000 0.19814 1.28266
v -0.70000 0.35000 1.24800
v -0.70000 0.19814 1.28266
v -0.96000 0.19814 1.28266
v -0.96000 0.19814 1.28266
v -0.96000 0.07636 1.37978
v -0.70000 0.19814 1.28266
v -0.70000 0.07636 1.37978
v -0.96000 0.07636 1.37978
v -0.96000 0.07636 1.37978
v -0.96000 0.00878 1.52012
v -0.70000 0.07636 1.37978
v -0.70000 0.00878 1.52012
v -0.96000 0.00878 1.52012
v -0.96000 0.00878 1.52012
v -0.96000 0.00878 1.67588
v -0.70000 0.00878 1.52012
v -0.70000 0.00878 1.67588
v -0.96000 0.00878 1.67588
v -0.96000 0.00878 1.67588
v -0.96000 0.07636 1.81622
v -0.70000 0.00878 1.67588
v -0.70000 0.07636 1.81622
v -0.96000 0.07636 1.81622
v -0.96000 0.07636 1.81622
v -0.96000 0.19814 1.91334
v -0.70000 0.07636 1.81622
v -0.70000 0.19814 1.91334
v -0.96000 0.19814 1.91334
v -0.96000 0.19814 1.91334
v -0.96000 0.35000 1.94800
v -0.70000 0.19814 1.91334
v -0.70000 0.35000 1.94800
v 0.70000 0.35000 1.94800
v 0.70000 0.50186 1.91334
v 0.70000 0.62364 1.81622
v 0.70000 0.69122 1.67588
v 0.70000 0.69122 1.52012
v 0.70000 0.62364 1.37978
v 0.70000 0.50186 1.28266
v 0.70000 0.35000 1.24800
v 0.70000 0.19814 1.28266
v 0.70000 0.07636 1.37978
v 0.70000 0.00878 1.52012
v 0.70000 0.00878 1.67588
v 0.70000 0.07636 1.81622
v 0.70000 0.19814 1.91334
v 0.70000 0.35000 1.59800
v 0.96000 0.35000 1.94800
v 0.96000 0.50186 1.91334
v 0.96000 0.62364 1.81622
v 0.96000 0.69122 1.67588
v 0.96000 0.69122 1.52012
v 0.96000 0.62364 1.37978
v 0.96000 0.50186 1.28266
v 0.96000 0.35000 1.24800
v 0.96000 0.19814 1.28266
v 0.96000 0.07636 1.37978
v 0.96000 0.00878 1.52012
v 0.96000 0.00878 1.67588
v 0.96000 0.07636 1.81622
v 0.96000 0.19814 1.91334
v 0.96000 0.35000 1.59800
v 0.70000 0.35000 1.94800
v 0.70000 0.35000 1.94800
v 0.70000 0.50186 1.91334
v 0.96000 0.35000 1.94800
v 0.96000 0.50186 1.91334
v 0.70000 0.50186 1.91334
v 0.70000 0.50186 1.91334
v 0.70000 0.62364 1.81622
v 0.96000 0.50186 1.91334
v 0.96000 0.62364 1.81622
v 0.70000 0.62364 1.81622
v 0.70000 0.62364 1.81622
v 0.70000 0.69122 1.67588
v 0.96000 0.62364 1.81622
v 0.96000 0.69122 1.67588
v 0.70000 0.69122 1.67588
v 0.70000 0.69122 1.67588
v 0.70000 0.69122 1.52012
v 0.96000 0.69122 1.67588
v 0.96000 0.69122 1.52012
v 0.70000 0.69122 1.52012
v 0.70000 0.69122 1.52012
v 0.70000 0.62364 1.37978
v 0.96000 0.69122 1.52012
v 0.96000 0.62364 1.37978
v 0.70000 0.62364 1.37978
v 0.70000 0.62364 1.37978
v 0.70000 0.50186 1.28266
v 0.96000 0.62364 1.37978
v 0.96000 0.50186 1.28266
v 0.70000 0.50186 1.28266
v 0.70000 0.50186 1.28266
v 0.70000 0.35000 1.24800
v 0.96000 0.50186 1.28266
v 0.96000 0.35000 1.24800
v 0.70000 0.35000 1.24800
v 0.70000 0.35000 1.24800
v 0.70000 0.19814 1.28266
v 0.96000 0.35000 1.24800
v 0.96000 0.19814 1.28266
v 0.70000 0.19814 1.28266
v 0.70000 0.19814 1.28266
v 0.70000 0.07636 1.37978
v 0.96000 0.19814 1.28266
v 0.96000 0.07636 1.37978
v 0.70000 0.07636 1.37978
v 0.70000 0.07636 1.37978
v 0.70000 0.00878 1.52012
v 0.96000 0.07636 1.37978
v 0.96000 0.00878 1.52012
v 0.70000 0.00878 1.52012
v 0.70000 0.00878 1.52012
v 0.70000 0.00878 1.67588
v 0.96000 0.00878 1.52012
v 0.96000 0.00878 1.67588
v 0.70000 0.00878 1.67588
v 0.70000 0.00878 1.67588
v 0.70000 0.07636 1.81622
v 0.96000 0.00878 1.67588
v 0.96000 0.07636 1.81622
v 0.70000 0.07636 1.81622
v 0.70000 0.07636 1.81622
v 0.70000 0.19814 1.91334
v 0.96000 0.07636 1.81622
v 0.96000 0.19814 1.91334
v 0.70000 0.19814 1.91334
v 0.70000 0.19814 1.91334
v 0.70000 0.35000 1.94800
v 0.96000 0.19814 1.91334
v 0.96000 0.35000 1.94800
v -0.96000 0.35000 -1.15400
v -0.96000 0.50186 -1.18866
v -0.96000 0.62364 -1.28578
v -0.96000 0.69122 -1.42612
v -0.96000 0.69122 -1.58188
v -0.96000 0.62364 -1.72222
v -0.96000 0.50186 -1.81934
v -0.96000 0.35000 -1.85400
v -0.96000 0.19814 -1.81934
v -0.96000 0.07636 -1.72222
v -0.96000 0.00878 -1.58188
v -0.96000 0.00878 -1.42612
v -0.96000 0.07636 -1.28578
v -0.96000 0.19814 -1.18866
v -0.96000 0.35000 -1.50400
v -0.70000 0.35000 -1.15400
v -0.70000 0.50186 -1.18866
v -0.70000 0.62364 -1.28578
v -0.70000 0.69122 -1.42612
v -0.70000 0.69122 -1.58188
v -0.70000 0.62364 -1.72222
v -0.70000 0.50186 -1.81934
v -0.70000 0.35000 -1.85400
v -0.70000 0.19814 -1.81934
v -0.70000 0.07636 -1.72222
v -0.70000 0.00878 -1.58188
v -0.70000 0.00878 -1.42612
v -0.70000 0.07636 -1.28578
v -0.70000 0.19814 -1.18866
v -0.70000 0.35000 -1.50400
v -0.96000 0.35000 -1.15400
v -0.96000 0.35000 -1.15400
v -0.96000 0.50186 -1.18866
v -0.70000 0.35000 -1.15400
v -0.70000 0.50186 -1.18866
v -0.96000 0.50186 -1.18866
v -0.96000 0.50186 -1.18866
v -0.96000 0.62364 -1.28578
v -0.70000 0.50186 -1.18866
v -0.70000 0.62364 -1.28578
v -0.96000 0.62364 -1.28578
v -0.96000 0.62364 -1.28578
v -0.96000 0.69122 -1.42612
v -0.70000 0.62364 -1.28578
v -0.70000 0.69122 -1.42612
v -0.96000 0.69122 -1.42612
v -0.96000 0.69122 -1.42612
v -0.96000 0.69122 -1.58188
v -0.70000 0.69122 -1.42612
v -0.70000 0.69122 -1.58188
v -0.96000 0.69122 -1.58188
v -0.96000 0.69122 -1.58188
v -0.96000 0.62364 -1.72222
v -0.70000 0.69122 -1.58188
v -0.70000 0.62364 -1.72222
v -0.96000 0.62364 -1.72222
v -0.96000 0.62364 -1.72222
v -0.96000 0.50186 -1.81934
v -0.70000 0.62364 -1.72222
v -0.70000 0.50186 -1.81934
v -0.96000 0.50186 -1.81934
v -0.96000 0.50186 -1.81934
v -0.96000 0.35000 -1.85400
v -0.70000 0.50186 -1.81934
v -0.70000 0.35000 -1.85400
v -0.96000 0.35000 -1.85400
v -0.96000 0.35000 -1.85400
v -0.96000 0.19814 -1.81934
v -0.70000 0.35000 -1.85400
v -0.70000 0.19814 -1.81934
v -0.96000 0.19814 -1.81934
v -0.96000 0.19814 -1.81934
v -0.96000 0.07636 -1.72222
v -0.70000 0.19814 -1.81934
v -0.70000 0.07636 -1.72222
v -0.96000 0.07636 -1.72222
v -0.96000 0.07636 -1.72222
v -0.96000 0.00878 -1.58188
v -0.70000 0.07636 -1.72222
v -0.70000 0.00878 -1.58188
v -0.96000 0.00878 -1.58188
v -0.96000 0.00878 -1.58188
v -0.96000 0.00878 -1.42612
v -0.70000 0.00878 -1.58188
v -0.70000 0.00878 -1.42612
v -0.96000 0.00878 -1.42612
v -0.96000 0.00878 -1.42612
v -0.96000 0.07636 -1.28578
v -0.70000 0.00878 -1.42612
v -0.70000 0.07636 -1.28578
v -0.96000 0.07636 -1.28578
v -0.96000 0.07636 -1.28578
v -0.96000 0.19814 -1.18866
v -0.70000 0.07636 -1.28578
v -0.70000 0.19814 -1.18866
v -0.96000 0.19814 -1.18866
v -0.96000 0.19814 -1.18866
v -0.96000 0.35000 -1.15400
v -0.70000 0.19814 -1.18866
v -0.70000 0.35000 -1.15400
v 0.70000 0.35000 -1.15400
v 0.70000 0.50186 -1.18866
v 0.70000 0.62364 -1.28578
v 0.70000 0.69122 -1.42612
v 0.70000 0.69122 -1.58188
v 0.70000 0.62364 -1.72222
v 0.70000 0.50186 -1.81934
v 0.70000 0.35000 -1.85400
v 0.70000 0.19814 -1.81934
v 0.70000 0.07636 -1.72222
v 0.70000 0.00878 -1.58188
v 0.70000 0.00878 -1.42612
v 0.70000 0.07636 -1.28578
v 0.70000 0.19814 -1.18866
v 0.70000 0.35000 -1.50400
v 0.96000 0.35000 -1.15400
v 0.96000 0.50186 -1.18866
v 0.96000 0.62364 -1.28578
v 0.96000 0.69122 -1.42612
v 0.96000 0.69122 -1.58188
v 0.96000 0.62364 -1.72222
v 0.96000 0.50186 -1.81934
v 0.96000 0.35000 -1.85400
v 0.96000 0.19814 -1.81934
v 0.96000 0.07636 -1.72222
v 0.96000 0.00878 -1.58188
v 0.96000 0.00878 -1.42612
v 0.96000 0.07636 -1.28578
v 0.96000 0.19814 -1.18866
v 0.96000 0.35000 -1.50400
v 0.70000 0.35000 -1.15400
v 0.70000 0.35000 -1.15400
v 0.70000 0.50186 -1.18866
v 0.96000 0.35000 -1.15400
v 0.96000 0.50186 -1.18866
v 0.70000 0.50186 -1.18866
v 0.70000 0.50186 -1.18866
v 0.70000 0.62364 -1.28578
v 0.96000 0.50186 -1.18866
v 0.96000 0.62364 -1.28578
v 0.70000 0.62364 -1.28578
v 0.70000 0.62364 -1.28578
v 0.70000 0.69122 -1.42612
v 0.96000 0.62364 -1.28578
v 0.96000 0.69122 -1.42612
v 0.70000 0.69122 -1.42612
v 0.70000 0.69122 -1.42612
v 0.70000 0.69122 -1.58188
v 0.96000 0.69122 -1.42612
v 0.96000 0.69122 -1.58188
v 0.70000 0.69122 -1.58188
v 0.70000 0.69122 -1.58188
v 0.70000 0.62364 -1.72222
v 0.96000 0.69122 -1.58188
v 0.96000 0.62364 -1.72222
v 0.70000 0.62364 -1.72222
v 0.70000 0.62364 -1.72222
v 0.70000 0.50186 -1.81934
v 0.96000 0.62364 -1.72222
v 0.96000 0.50186 -1.81934
v 0.70000 0.50186 -1.81934
v 0.70000 0.50186 -1.81934
v 0.70000 0.35000 -1.85400
v 0.96000 0.50186 -1.81934
v 0.96000 0.35000 -1.85400
v 0.70000 0.35000 -1.85400
v 0.70000 0.35000 -1.85400
v 0.70000 0.19814 -1.81934
v 0.96000 0.35000 -1.85400
v 0.96000 0.19814 -1.81934
v 0.70000 0.19814 -1.81934
v 0.70000 0.19814 -1.81934
v 0.70000 0.07636 -1.72222
v 0.96000 0.19814 -1.81934
v 0.96000 0.07636 -1.72222
v 0.70000 0.07636 -1.72222
v 0.70000 0.07636 -1.72222
v 0.70000 0.00878 -1.58188
v 0.96000 0.07636 -1.72222
v 0.96000 0.00878 -1.58188
v 0.70000 0.00878 -1.58188
v 0.70000 0.00878 -1.58188
v 0.70000 0.00878 -1.42612
v 0.96000 0.00878 -1.58188
v 0.96000 0.00878 -1.42612
v 0.70000 0.00878 -1.42612
v 0.70000 0.00878 -1.42612
v 0.70000 0.07636 -1.28578
v 0.96000 0.00878 -1.42612
v 0.96000 0.07636 -1.28578
v 0.70000 0.07636 -1.28578
v 0.70000 0.07636 -1.28578
v 0.70000 0.19814 -1.18866
v 0.96000 0.07636 -1.28578
v 0.96000 0.19814 -1.18866
v 0.70000 0.19814 -1.18866
v 0.70000 0.19814 -1.18866
v 0.70000 0.35000 -1.15400
v 0.96000 0.19814 -1.18866
v 0.96000 0.35000 -1.15400
g Body
usemtl Body
g Glass
usemtl Glass
g LightsF
usemtl LightsF
g LightsR
usemtl LightsR
g Glow
usemtl Glow
g Rims
usemtl Rims
g Tires
usemtl Tires
g Body
usemtl Body
f 1 2 8
f 1 8 7
f 2 3 9
f 2 9 8
f 3 4 10
f 3 10 9
f 4 5 11
f 4 11 10
f 5 6 12
f 5 12 11
f 6 1 7
f 6 7 12
f 7 8 14
f 7 14 13
f 8 9 15
f 8 15 14
f 9 10 16
f 9 16 15
f 10 11 17
f 10 17 16
f 11 12 18
f 11 18 17
f 12 7 13
f 12 13 18
f 13 14 20
f 13 20 19
f 14 15 21
f 14 21 20
f 15 16 22
f 15 22 21
f 16 17 23
f 16 23 22
f 17 18 24
f 17 24 23
f 18 13 19
f 18 19 24
f 19 20 26
f 19 26 25
f 20 21 27
f 20 27 26
f 22 23 29
f 22 29 28
f 23 24 30
f 23 30 29
f 24 19 25
f 24 25 30
f 25 32 26
f 25 31 32
f 29 36 30
f 29 35 36
f 30 31 25
f 30 36 31
f 31 38 32
f 31 37 38
f 35 42 36
f 35 41 42
f 36 37 31
f 36 42 37
f 37 44 38
f 37 43 44
f 38 45 39
f 38 44 45
f 40 47 41
f 40 46 47
f 41 48 42
f 41 47 48
f 42 43 37
f 42 48 43
f 43 44 50
f 43 50 49
f 44 45 51
f 44 51 50
f 45 46 52
f 45 52 51
f 46 47 53
f 46 53 52
f 47 48 54
f 47 54 53
f 48 43 49
f 48 49 54
f 49 50 56
f 49 56 55
f 50 51 57
f 50 57 56
f 51 52 58
f 51 58 57
f 52 53 59
f 52 59 58
f 53 54 60
f 53 60 59
f 54 49 55
f 54 55 60
f 61 2 1
f 61 3 2
f 61 4 3
f 61 5 4
f 61 6 5
f 61 1 6
f 62 56 55
f 62 57 56
f 62 58 57
f 62 59 58
f 62 60 59
f 62 55 60
f 63 64 65
f 63 65 66
f 67 68 69
f 67 69 70
f 63 68 64
f 63 67 68
f 66 70 69
f 66 69 65
f 63 67 70
f 63 70 66
f 64 65 69
f 64 69 68
f 71 72 73
f 71 73 74
f 75 76 77
f 75 77 78
f 71 76 72
f 71 75 76
f 74 78 77
f 74 77 73
f 71 75 78
f 71 78 74
f 72 77 73
f 72 76 77
f 79 80 81
f 79 81 82
f 83 84 85
f 83 85 86
f 79 84 80
f 79 83 84
f 82 86 85
f 82 85 81
f 79 86 83
f 79 82 86
f 80 81 85
f 80 85 84
g Glass
usemtl Glass
f 21 22 28
f 21 28 27
f 26 33 27
f 26 32 33
f 27 34 28
f 27 33 34
f 28 35 29
f 28 34 35
f 32 39 33
f 32 38 39
f 33 40 34
f 33 39 40
f 34 41 35
f 34 40 41
f 39 46 40
f 39 45 46
g LightsF
usemtl LightsF
f 87 88 89
f 87 89 90
f 91 92 93
f 91 93 94
f 87 92 88
f 87 91 92
f 90 94 93
f 90 93 89
f 87 91 94
f 87 94 90
f 88 89 93
f 88 93 92
g LightsR
usemtl LightsR
f 95 96 97
f 95 97 98
f 99 100 101
f 99 101 102
f 95 100 96
f 95 99 100
f 98 102 101
f 98 101 97
f 95 99 102
f 95 102 98
f 96 97 101
f 96 101 100
g Glow
usemtl Glow
f 103 104 105
f 103 105 106
f 107 109 108
f 107 110 109
f 103 104 108
f 103 108 107
f 106 109 110
f 106 105 109
f 103 110 107
f 103 106 110
f 104 109 105
f 104 108 109
g Rims
usemtl Rims
f 125 111 112
f 125 112 113
f 125 113 114
f 125 114 115
f 125 115 116
f 125 116 117
f 125 117 118
f 125 118 119
f 125 119 120
f 125 120 121
f 125 121 122
f 125 122 123
f 125 123 124
f 125 124 111
f 140 126 127
f 140 127 128
f 140 128 129
f 140 129 130
f 140 130 131
f 140 131 132
f 140 132 133
f 140 133 134
f 140 134 135
f 140 135 136
f 140 136 137
f 140 137 138
f 140 138 139
f 140 139 126
f 225 212 211
f 225 213 212
f 225 214 213
f 225 215 214
f 225 216 215
f 225 217 216
f 225 218 217
f 225 219 218
f 225 220 219
f 225 221 220
f 225 222 221
f 225 223 222
f 225 224 223
f 225 211 224
f 240 227 226
f 240 228 227
f 240 229 228
f 240 230 229
f 240 231 230
f 240 232 231
f 240 233 232
f 240 234 233
f 240 235 234
f 240 236 235
f 240 237 236
f 240 238 237
f 240 239 238
f 240 226 239
f 325 311 312
f 325 312 313
f 325 313 314
f 325 314 315
f 325 315 316
f 325 316 317
f 325 317 318
f 325 318 319
f 325 319 320
f 325 320 321
f 325 321 322
f 325 322 323
f 325 323 324
f 325 324 311
f 340 326 327
f 340 327 328
f 340 328 329
f 340 329 330
f 340 330 331
f 340 331 332
f 340 332 333
f 340 333 334
f 340 334 335
f 340 335 336
f 340 336 337
f 340 337 338
f 340 338 339
f 340 339 326
f 425 412 411
f 425 413 412
f 425 414 413
f 425 415 414
f 425 416 415
f 425 417 416
f 425 418 417
f 425 419 418
f 425 420 419
f 425 421 420
f 425 422 421
f 425 423 422
f 425 424 423
f 425 411 424
f 440 427 426
f 440 428 427
f 440 429 428
f 440 430 429
f 440 431 430
f 440 432 431
f 440 433 432
f 440 434 433
f 440 435 434
f 440 436 435
f 440 437 436
f 440 438 437
f 440 439 438
f 440 426 439
g Tires
usemtl Tires
f 142 145 143
f 142 144 145
f 147 150 148
f 147 149 150
f 152 155 153
f 152 154 155
f 157 158 160
f 157 160 159
f 162 163 165
f 162 165 164
f 167 168 170
f 167 170 169
f 172 173 175
f 172 175 174
f 177 178 180
f 177 180 179
f 182 185 183
f 182 184 185
f 187 190 188
f 187 189 190
f 192 195 193
f 192 194 195
f 197 200 198
f 197 199 200
f 202 205 203
f 202 204 205
f 207 210 208
f 207 209 210
f 242 245 243
f 242 244 245
f 247 250 248
f 247 249 250
f 252 255 253
f 252 254 255
f 257 258 260
f 257 260 259
f 262 263 265
f 262 265 264
f 267 268 270
f 267 270 269
f 272 273 275
f 272 275 274
f 277 278 280
f 277 280 279
f 282 285 283
f 282 284 285
f 287 290 288
f 287 289 290
f 292 295 293
f 292 294 295
f 297 300 298
f 297 299 300
f 302 305 303
f 302 304 305
f 307 310 308
f 307 309 310
f 342 345 343
f 342 344 345
f 347 350 348
f 347 349 350
f 352 355 353
f 352 354 355
f 357 358 360
f 357 360 359
f 362 363 365
f 362 365 364
f 367 368 370
f 367 370 369
f 372 373 375
f 372 375 374
f 377 378 380
f 377 380 379
f 382 383 385
f 382 385 384
f 387 390 388
f 387 389 390
f 392 395 393
f 392 394 395
f 397 400 398
f 397 399 400
f 402 405 403
f 402 404 405
f 407 410 408
f 407 409 410
f 442 445 443
f 442 444 445
f 447 450 448
f 447 449 450
f 452 455 453
f 452 454 455
f 457 458 460
f 457 460 459
f 462 463 465
f 462 465 464
f 467 468 470
f 467 470 469
f 472 473 475
f 472 475 474
f 477 478 480
f 477 480 479
f 482 483 485
f 482 485 484
f 487 490 488
f 487 489 490
f 492 495 493
f 492 494 495
f 497 500 498
f 497 499 500
f 502 505 503
f 502 504 505
f 507 510 508
f 507 509 510
